<svg xmlns="http://www.w3.org/2000/svg" width="40" height="40" viewBox="0 0 40 40" fill="#4A4A4A">
<path d="M13.636 13.2929C14.0266 12.9024 14.6597 12.9024 15.0503 13.2929L26.364 24.6066C26.7545 24.9971 26.7545 25.6303 26.364 26.0208C25.9734 26.4113 25.3403 26.4113 24.9497 26.0208L13.636 14.7071C13.2455 14.3166 13.2455 13.6834 13.636 13.2929Z" fill="#4A4A4A"/>
<path d="M13.636 26.0208C13.2455 25.6303 13.2455 24.9971 13.636 24.6066L24.9497 13.2929C25.3403 12.9024 25.9734 12.9024 26.364 13.2929C26.7545 13.6834 26.7545 14.3166 26.364 14.7071L15.0503 26.0208C14.6597 26.4113 14.0266 26.4113 13.636 26.0208Z" fill="#4A4A4A"/>
</svg>