<svg xmlns="http://www.w3.org/2000/svg" width="18" height="12" viewBox="0 0 18 12" fill="#4A4A4A">
  <path d="M7.59458e-06 6.07106C7.59458e-06 5.51878 0.447723 5.07106 1.00001 5.07106H17C17.5523 5.07106 18 5.51878 18 6.07106C18 6.62335 17.5523 7.07106 17 7.07106H1.00001C0.447723 7.07106 7.59458e-06 6.62335 7.59458e-06 6.07106Z" fill="#4A4A4A"/>
  <path d="M0 1C0 0.447715 0.447715 0 1 0H17C17.5523 0 18 0.447715 18 1C18 1.55228 17.5523 2 17 2H1C0.447716 2 0 1.55228 0 1Z" fill="#4A4A4A"/>
  <path d="M0 11C0 10.4477 0.447715 10 1 10H17C17.5523 10 18 10.4477 18 11C18 11.5523 17.5523 12 17 12H1C0.447716 12 0 11.5523 0 11Z" fill="#4A4A4A"/>
</svg>