<svg width="44" height="45" viewBox="0 0 44 45" fill="none" xmlns="http://www.w3.org/2000/svg">
<path d="M40.5987 1.99525V8.55914C41.4321 9.57994 42.6467 10.2228 43.9996 10.2228V0.33252C42.6467 0.33252 41.4321 0.975387 40.5987 1.99525Z" fill="#3085C3"/>
<path d="M11.9893 14.975C11.6466 15.6511 11.8718 16.5004 12.4944 16.874L27.4056 25.8162C28.0274 26.1879 28.8092 25.9422 29.1527 25.266L29.7479 24.0912L12.5845 13.8003L11.9893 14.975Z" fill="#3085C3"/>
<path d="M27.137 12.559L27.6325 11.5829C27.8867 11.0826 27.7193 10.4528 27.2585 10.1763L24.7353 8.66305C24.2743 8.38661 23.6953 8.56866 23.4419 9.06976L22.9464 10.0469C19.3695 8.99107 15.5222 10.1737 12.9852 13.1013L30.0778 23.3504C30.9996 19.4544 29.867 15.2855 27.137 12.559Z" fill="#3085C3"/>
<path d="M0.135587 31.4907C-0.15488 32.0655 0.0365877 32.7871 0.564326 33.1037C1.09275 33.4204 1.75636 33.2113 2.0476 32.6375C2.33875 32.0637 2.03067 30.2119 2.03067 30.2119C2.03067 30.2119 0.426741 30.9169 0.135587 31.4907Z" fill="#3085C3"/>
<path d="M5.74275 34.8532C5.45159 35.427 5.64383 36.1495 6.17149 36.4652C6.7 36.7819 7.36274 36.5737 7.6539 35.9991C7.94505 35.4253 7.63783 33.5743 7.63783 33.5743C7.63783 33.5743 6.03399 34.2784 5.74275 34.8532Z" fill="#3085C3"/>
<path d="M11.349 35.8473C11.0588 36.4212 11.251 37.1437 11.7786 37.4604C12.3062 37.777 12.9707 37.5688 13.2618 36.9941C13.553 36.4203 13.2441 34.5695 13.2441 34.5695C13.2442 34.5686 11.6403 35.2736 11.349 35.8473Z" fill="#3085C3"/>
<path d="M16.957 39.21C16.6659 39.7838 16.8572 40.5063 17.3849 40.8229C17.9126 41.1396 18.577 40.9305 18.8682 40.3559C19.1593 39.782 18.8513 37.9312 18.8513 37.9312C18.8513 37.9312 17.2482 38.6361 16.957 39.21Z" fill="#3085C3"/>
<path d="M22.5634 42.5722C22.2721 43.1461 22.4637 43.8685 22.9921 44.1843C23.5197 44.5009 24.1841 44.2919 24.4753 43.7181C24.7657 43.1442 24.4584 41.2933 24.4584 41.2933C24.4584 41.2933 22.8546 41.9983 22.5634 42.5722Z" fill="#3085C3"/>
<path d="M6.15465 29.2891C6.6823 29.6057 7.34668 29.3966 7.63792 28.8229C7.92908 28.2482 7.62108 26.3973 7.62108 26.3973C7.62108 26.3973 6.01715 27.1024 5.726 27.6762C5.43553 28.2508 5.627 28.9725 6.15465 29.2891Z" fill="#3085C3"/>
<path d="M11.7616 30.2843C12.2893 30.6009 12.9529 30.3919 13.2441 29.8172C13.5352 29.2434 13.228 27.3926 13.2272 27.3926C13.2272 27.3926 11.6241 28.0976 11.3329 28.6714C11.0417 29.2452 11.2332 29.9677 11.7616 30.2843Z" fill="#3085C3"/>
<path d="M17.3691 33.6457C17.8968 33.9624 18.5604 33.7542 18.8516 33.1795C19.1427 32.6057 18.8347 30.7548 18.8347 30.7548C18.8347 30.7548 17.2308 31.4588 16.9396 32.0336C16.6484 32.6075 16.8407 33.329 17.3691 33.6457Z" fill="#3085C3"/>
<path d="M22.9753 37.0082C23.5029 37.3241 24.1673 37.1159 24.4585 36.542C24.7497 35.9682 24.4409 34.1173 24.4409 34.1173C24.4409 34.1173 22.8378 34.8214 22.5466 35.3953C22.2553 35.9691 22.4476 36.6916 22.9753 37.0082Z" fill="#3085C3"/>
<path d="M12.9499 23.1877C13.2411 22.6138 12.9338 20.7629 12.9338 20.7629C12.9338 20.7629 11.3299 21.4672 11.0388 22.0419C10.7476 22.6166 10.9391 23.3381 11.4667 23.6539C11.9952 23.9705 12.6588 23.7624 12.9499 23.1877Z" fill="#3085C3"/>
<path d="M18.5572 26.5502C18.8483 25.9763 18.5403 24.1255 18.5403 24.1255C18.5403 24.1255 16.9364 24.8297 16.6452 25.4044C16.3541 25.9782 16.5463 26.6999 17.0748 27.0165C17.6023 27.3331 18.2668 27.1249 18.5572 26.5502Z" fill="#3085C3"/>
<path d="M24.1642 29.9125C24.4554 29.3378 24.1465 27.4869 24.1465 27.4869C24.1465 27.4869 22.5427 28.192 22.2514 28.7658C21.961 29.3396 22.1533 30.0621 22.6809 30.3788C23.2087 30.6954 23.8731 30.4863 24.1642 29.9125Z" fill="#3085C3"/>
<path d="M31.2169 2.49365C28.9341 3.54426 26.9964 5.29455 25.6266 7.49968C25.5744 7.58369 25.5245 7.66939 25.4738 7.75518L27.6842 9.07951C27.6842 9.07951 27.685 9.08045 27.6857 9.0812C28.4225 7.882 29.3685 6.84541 30.4673 6.039C32.0952 4.84326 34.049 4.14778 36.1638 4.1461H39.4873V1.40735H36.1638C34.4118 1.40735 32.7371 1.79397 31.2169 2.49365Z" fill="#3085C3"/>
</svg>
