<svg width="44" height="44" viewBox="0 0 44 44" fill="none" xmlns="http://www.w3.org/2000/svg">
<path d="M14.872 16.7912L11.9903 19.6954C11.4576 20.2341 11.1003 20.9358 11.1003 21.7182V23.0209C11.1003 23.5276 11.5076 23.9371 12.0094 23.9371H16.4074C16.9092 23.9371 17.3165 23.5505 17.3165 23.0741C17.3165 22.5959 16.9092 22.2092 16.4065 22.2092H14.0166C13.5148 22.2092 13.1075 22.0993 13.1075 21.9646C13.1075 21.8281 13.1075 21.7191 13.1075 21.7191C13.1075 21.4259 13.2203 21.1484 13.4148 20.9688L16.2965 18.0656C16.8301 17.5269 17.1701 16.8251 17.1701 16.0427V14.6392C17.1701 13.221 15.8429 12.0621 14.2075 12.0621C12.573 12.0621 11.2458 13.2201 11.2458 14.6392V15.21C11.2458 15.526 11.6521 15.7816 12.1548 15.7816H12.3439C12.8457 15.7816 13.253 15.526 13.253 15.21C13.253 14.8948 13.253 14.6392 13.253 14.6392C13.253 14.183 13.6902 13.7909 14.2075 13.7909C14.742 13.7909 15.1629 14.183 15.1629 14.6392V16.0427C15.1629 16.335 15.0502 16.5961 14.872 16.7912Z" fill="#3085C3"/>
<path d="M24.6663 12.1913H24.4781C23.9754 12.1913 23.3591 12.5431 23.1 12.9773L19.4056 19.1878C19.1483 19.6221 18.9383 20.3614 18.9383 20.8387C18.9383 21.3151 19.3447 21.7026 19.8474 21.7026H22.6573C23.1609 21.7026 23.5663 22.1121 23.5663 22.6187V23.0209C23.5663 23.5275 23.9727 23.9371 24.4754 23.9371H24.6654C25.1681 23.9371 25.5744 23.5285 25.5744 23.0209V22.6187C25.5744 22.1121 25.7181 21.7026 25.8963 21.7026C26.0762 21.7026 26.2199 21.316 26.2199 20.8387C26.2199 20.3605 26.0762 19.9729 25.8972 19.9729C25.7199 19.9729 25.5744 19.5634 25.5744 19.0568V13.1074C25.5754 12.6008 25.1699 12.1913 24.6663 12.1913ZM23.5672 19.0568C23.5672 19.5634 23.1618 19.9729 22.6582 19.972H22.0328C21.531 19.972 21.3319 19.6193 21.5873 19.1841L23.1045 16.6006C23.36 16.1664 23.5682 16.2223 23.5682 16.7289L23.5672 19.0568Z" fill="#3085C3"/>
<path d="M28.5665 10.6046C28.2201 10.6046 27.9401 11.0141 27.9401 11.5207V17.5993C27.9401 18.1059 28.221 18.5154 28.5665 18.5145C28.9128 18.5145 29.1937 18.105 29.1937 17.5984V14.4826C29.1937 14.1858 29.4773 13.9549 29.8164 13.9549C30.1537 13.9549 30.4382 14.1858 30.4382 14.4826V17.5984C30.4382 18.105 30.7191 18.5145 31.0646 18.5145C31.4091 18.5145 31.69 18.105 31.69 17.5984V14.4826C31.69 13.626 30.8509 12.9334 29.8155 12.9334C29.7037 12.9334 29.5973 12.9472 29.4955 12.9701C29.3219 13.0104 29.1928 12.6668 29.1928 12.1602V11.5207C29.1937 11.0141 28.9119 10.6046 28.5665 10.6046Z" fill="#3085C3"/>
<path d="M43.1466 23.4662L41.3494 22.901C41.5267 21.1631 41.4949 19.4068 41.2322 17.6598C39.5322 6.33817 29.0108 -1.4783 17.7748 0.235792C6.54253 1.94988 -1.21354 12.5551 0.487305 23.8767C0.681844 25.1666 0.990923 26.4134 1.40182 27.6044C1.73362 28.5599 2.47996 29.2058 2.97812 29.0858C3.47538 28.9658 3.52174 28.1284 3.18266 27.1766C2.77631 26.0369 2.4736 24.8413 2.28633 23.6C0.734569 13.2797 7.80612 3.61083 18.0485 2.04882C28.2908 0.485897 37.8832 7.61251 39.4349 17.9346C39.654 19.4032 39.7049 20.8809 39.584 22.3458C39.584 22.3458 38.8332 22.1094 37.9059 21.8181C36.9778 21.5268 36.4078 22.092 36.6278 23.0778L37.8177 28.4152C38.0377 29.401 38.8159 29.6465 39.5522 28.9612L43.5448 25.2536C44.283 24.5674 44.103 23.7676 43.1466 23.4662Z" fill="#3085C3"/>
<path d="M42.3176 38.1088C42.3667 37.8468 42.3421 37.5692 42.2248 37.3017C41.4376 35.5097 38.945 31.1764 32.8334 29.6666C30.0317 28.9722 25.8473 28.1449 21.8265 28.1449L21.4147 28.1476C15.4395 28.2374 10.0851 29.4596 9.91514 29.5008C9.72788 29.531 5.30077 30.2969 2.34724 33.4878L2.35815 33.4988C1.84726 33.9285 1.37455 34.709 1.16365 35.091L1.14547 35.0791C0.753667 35.7323 0.460042 36.3736 0.247322 37.0397C0.161871 37.3081 0.165507 37.5802 0.234595 37.8339C0.107327 38.0547 0.0273304 38.3076 0.0255123 38.5788L5.87286e-05 41.8191C-0.00721373 42.6556 0.661852 43.3436 1.49546 43.3527L11.4296 43.4352H11.4378C12.2641 43.4352 12.9405 42.7591 12.9478 41.9272L12.9732 38.6859C12.975 38.4322 12.9087 38.1958 12.8005 37.9833C12.8487 37.9136 12.9059 37.8458 12.9432 37.7744C13.0814 37.5078 13.745 36.6219 16.4658 36.4533C17.3385 36.3984 18.3848 36.3718 19.5757 36.3718C23.011 36.3718 26.57 36.6008 26.6054 36.6036L26.7163 36.6045C27.0863 36.6045 28.9399 36.6704 29.0581 37.9723C29.0717 38.1216 29.1099 38.2599 29.1572 38.3937C28.9863 38.6493 28.8872 38.9571 28.8972 39.2888L29.0035 42.5346C29.0335 43.3555 29.6971 43.9995 30.5116 43.9995L41.1885 43.6459C42.0176 43.6148 42.6703 42.9112 42.643 42.0775L42.5367 38.8353C42.5276 38.5668 42.4457 38.3222 42.3176 38.1088ZM11.1306 41.6002L1.81999 41.5232L1.83999 38.9067L11.1506 38.9837L11.1306 41.6002ZM26.7309 34.7741C26.7282 34.7741 26.7245 34.7741 26.7218 34.7741C26.6863 34.7722 23.071 34.5386 19.5748 34.5386C18.3466 34.5386 17.2621 34.567 16.3531 34.6238C13.0823 34.8281 11.8169 35.9879 11.3305 36.927C11.316 36.9545 11.2751 36.9929 11.316 36.9929L2.20907 36.9847C2.34452 36.6677 2.50815 36.3525 2.69996 36.0301C2.82632 35.8496 3.46357 34.9958 3.64083 34.7777L3.67901 34.7374C6.20074 32.0119 10.1742 31.3147 10.2679 31.2964C10.3215 31.2836 15.6577 30.0651 21.442 29.979L21.8274 29.9763C25.6673 29.9763 29.6962 30.7751 32.4016 31.4457C37.0441 32.5936 39.2777 35.5784 40.2249 37.3475L30.8371 37.5573C30.5016 35.5106 28.4435 34.7741 26.7309 34.7741ZM30.8098 42.1563L30.7235 39.5398L40.7295 39.21L40.8158 41.8246L30.8098 42.1563Z" fill="#3085C3"/>
</svg>
