<svg width="44" height="49" viewBox="0 0 44 49" fill="none" xmlns="http://www.w3.org/2000/svg">
<path d="M43.299 3.49839H42.6918V1.44019C42.6918 1.06127 42.3782 0.75415 41.9912 0.75415H36.573C36.186 0.75415 35.8724 1.06136 35.8724 1.44019V3.49839H35.0784C34.6914 3.49839 34.3778 3.8056 34.3778 4.18443V6.37984C34.3778 6.75875 34.6914 7.06588 35.0784 7.06588H35.8724V9.12408C35.8724 9.50299 36.1861 9.81011 36.573 9.81011C36.9601 9.81011 37.2736 9.50291 37.2736 9.12408V7.06596H41.2906V16.991C41.2906 21.1523 37.8332 24.5377 33.5837 24.5377H28.3056V20.4213H33.7705C35.7022 20.4213 37.2737 18.8825 37.2737 16.9909V12.783C37.2737 12.4041 36.9601 12.097 36.5731 12.097C36.1861 12.097 35.8725 12.4042 35.8725 12.783V16.9909C35.8725 18.1258 34.9296 19.0491 33.7706 19.0491H28.3057V18.0887C28.3057 17.7097 27.992 17.4026 27.6051 17.4026H25.363C24.976 17.4026 24.6624 17.7098 24.6624 18.0887V19.0491H23.074V14.2009H23.8259C24.1317 15.2554 25.1233 16.0305 26.2969 16.0305C27.7134 16.0305 28.8659 14.902 28.8659 13.5149C28.8659 12.1278 27.7134 10.9993 26.2969 10.9993C25.1233 10.9993 24.1317 11.7743 23.8259 12.8289H20.9209C20.615 11.7743 19.6234 10.9993 18.4499 10.9993C17.0334 10.9993 15.8809 12.1278 15.8809 13.5149C15.8809 14.902 17.0334 16.0305 18.4499 16.0305C19.6234 16.0305 20.6151 15.2554 20.9209 14.2009H21.6727V19.0491H20.0846V18.0887C20.0846 17.7097 19.771 17.4026 19.384 17.4026H17.142C16.7549 17.4026 16.4414 17.7098 16.4414 18.0887V19.0491H10.6027C5.58036 19.0491 1.49445 23.05 1.49445 27.968V31.0781C1.49445 31.457 1.8081 31.7641 2.19506 31.7641C2.58211 31.7641 2.89567 31.4569 2.89567 31.0781V27.968C2.89567 23.8067 6.35306 20.4213 10.6026 20.4213H16.4413V24.5377H10.4158C8.48405 24.5377 6.91257 26.0765 6.91257 27.968V38.442H2.89584V34.7372C2.89584 34.3583 2.5822 34.0512 2.19524 34.0512C1.80818 34.0512 1.49463 34.3584 1.49463 34.7372V38.442H0.700607C0.313555 38.442 0 38.7492 0 39.128V41.3234C0 41.7024 0.313643 42.0095 0.700607 42.0095H1.49463V44.0677C1.49463 44.4466 1.80827 44.7537 2.19524 44.7537H7.61344C8.0005 44.7537 8.31405 44.4465 8.31405 44.0677V42.0095H8.92124C9.3083 42.0095 9.62185 41.7023 9.62185 41.3234V39.128C9.62185 38.7491 9.30821 38.442 8.92124 38.442H8.31405V27.968C8.31405 26.8331 9.25701 25.9098 10.416 25.9098H16.4415V26.8703C16.4415 27.2492 16.7551 27.5563 17.1421 27.5563H19.3841C19.7711 27.5563 20.0847 27.2491 20.0847 26.8703V25.9098H24.6622V26.8703C24.6622 27.2492 24.9758 27.5563 25.3628 27.5563H27.6048C27.9919 27.5563 28.3054 27.2491 28.3054 26.8703V25.9098H33.5835C38.6059 25.9098 42.6918 21.9089 42.6918 16.991V7.06596H43.299C43.686 7.06596 43.9996 6.75875 43.9996 6.37992V4.18451C43.9997 3.8056 43.6861 3.49839 43.299 3.49839ZM26.297 12.3715C26.941 12.3715 27.4648 12.8844 27.4648 13.515C27.4648 14.1455 26.941 14.6584 26.297 14.6584C25.6531 14.6584 25.1293 14.1454 25.1293 13.515C25.1293 12.8845 25.6531 12.3715 26.297 12.3715ZM18.4499 14.6584C17.8059 14.6584 17.2821 14.1454 17.2821 13.515C17.2821 12.8845 17.8059 12.3715 18.4499 12.3715C19.0938 12.3715 19.6175 12.8844 19.6175 13.515C19.6175 14.1455 19.0938 14.6584 18.4499 14.6584ZM6.91275 43.3816H2.89584V42.0095H6.91284L6.91275 43.3816ZM8.22064 40.6374H1.40113V39.8141H8.22064V40.6374ZM18.6835 26.1843H17.8428V18.7749H18.6835V26.1843ZM24.6622 24.5378H20.0847V20.4214H24.6622V24.5378ZM26.9042 26.1843H26.0635V18.7749H26.9042V26.1843ZM37.2736 2.12631H41.2906V3.49848H37.2736V2.12631ZM42.5984 5.6938H35.7789V4.87055H42.5984V5.6938Z" fill="#3085C3"/>
<path d="M26.2345 38.5073C26.0711 38.2396 25.7131 38.1499 25.4348 38.3069C25.1564 38.464 25.0632 38.8082 25.2265 39.0759C26.8797 41.7858 27.1265 42.9713 27.1265 43.4367C27.1265 45.523 25.3615 47.2203 23.192 47.2203C21.0224 47.2203 19.2574 45.523 19.2574 43.4367C19.2574 41.8207 21.771 37.9931 23.1906 36.0204C23.3981 36.3094 23.6604 36.6812 23.95 37.1057C24.127 37.3652 24.4894 37.4376 24.7591 37.2674C25.029 37.0973 25.1042 36.7489 24.9273 36.4893C24.2212 35.454 23.6873 34.745 23.6649 34.7153C23.4355 34.4111 22.9484 34.4111 22.7188 34.7153C22.245 35.3437 18.0887 40.9269 18.0887 43.4367C18.0887 46.1427 20.378 48.3442 23.192 48.3442C26.0059 48.3442 28.2952 46.1427 28.2952 43.4367C28.2952 42.3926 27.6211 40.7801 26.2345 38.5073Z" fill="#3085C3"/>
<path d="M24.6216 39.4171C24.4582 39.1494 24.1003 39.0597 23.822 39.2167C23.5435 39.3738 23.4504 39.718 23.6136 39.9857C25.1984 42.5837 25.255 43.4095 25.2565 43.4365C25.2565 44.5313 24.3303 45.422 23.1919 45.422C22.8691 45.422 22.6075 45.6736 22.6075 45.9839C22.6075 46.2941 22.8691 46.5458 23.1919 46.5458C24.9747 46.5458 26.4252 45.1509 26.4252 43.4364C26.4252 43.1871 26.2952 42.1604 24.6216 39.4171Z" fill="#3085C3"/>
</svg>
