<svg width="565" height="495" viewBox="0 0 565 495" fill="none" xmlns="http://www.w3.org/2000/svg">
<path d="M542.246 473.588C509.939 473.588 14.5198 473.657 14.5198 473.588C-3.62757 439.747 -8.97279 358.962 30.3296 280.942C44.7265 252.369 6.53131 197.571 31.3252 109.663C40.7467 76.2559 78.3802 18.8359 177.696 63.3935C219.925 82.3386 255.759 52.0873 263.692 41.164C268.161 35.0165 273.055 29.6435 278.297 25.0006C332.954 -23.6422 427.392 7.33594 468.613 65.8048C474.454 74.0932 501.015 116.975 480.08 175.908C466.86 213.124 522.241 248.662 541.919 291.152C591.954 399.186 542.7 472.182 542.246 473.588Z" fill="#E8F6FB"/>
<path d="M423.961 134.544H311.428V132.02H423.961V134.544Z" fill="#13546C"/>
<path d="M310.128 132.913C310.217 129.399 315.379 129.401 315.467 132.913C315.378 136.425 310.217 136.425 310.128 132.913Z" fill="#13546C"/>
<path d="M420.522 132.913C420.611 129.399 425.771 129.4 425.859 132.913C425.771 136.426 420.611 136.425 420.522 132.913Z" fill="#13546C"/>
<path d="M413.029 132.088V218.923C404.388 220.392 381.842 219.132 368.99 220.604C356.135 222.077 326.969 220.101 326.969 220.101V132.493C326.969 131.053 328.133 129.891 329.576 129.887C342.382 129.866 398.526 129.78 410.696 129.764C411.983 129.76 413.029 130.804 413.029 132.088Z" fill="#D6A35B"/>
<path d="M413.029 185.106V218.923C404.388 220.392 381.842 219.132 368.99 220.604C356.135 222.077 326.969 220.101 326.969 220.101V187.553C327.17 186.391 327.284 185.72 327.284 185.72C327.284 185.72 346.022 187.169 362.669 186.117C379.231 185.069 399.129 187.77 413.029 185.106Z" fill="#E4AB5C"/>
<path d="M413.029 201.986V204.093C409.455 204.322 389.754 205.505 382.691 204.327C375.747 203.173 358.086 204.265 350.544 204.731C344.745 205.259 329.769 204.763 326.969 204.633V202.526C329.122 202.613 343.95 203.182 350.413 202.633C358.673 202.122 375.857 201.058 383.039 202.252C389.885 203.39 409.983 202.179 413.029 201.986Z" fill="#C1EEFF"/>
<path d="M326.969 207.153C329.122 207.24 343.95 207.809 350.413 207.26C358.673 206.749 375.857 205.685 383.039 206.879C389.885 208.017 409.983 206.806 413.029 206.613V208.716C409.455 208.95 389.758 210.132 382.691 208.954C375.747 207.8 358.086 208.892 350.544 209.358C344.745 209.886 329.766 209.393 326.969 209.256V207.153Z" fill="#C1EEFF"/>
<path d="M279.221 241.718H174.951V109.194H279.221V241.718Z" fill="#4A7E90"/>
<path d="M274.995 238.081H179.177V113.341H274.995V238.081Z" fill="#B5E5F6"/>
<path d="M279.735 282.417C279.735 292.222 269.117 300.778 253.367 305.318H201.597C185.847 300.778 175.229 292.222 175.229 282.417H279.735Z" fill="#B8D8E4"/>
<path d="M304.192 473.42H161.14V313.264H304.192V473.42Z" fill="#82BDD3"/>
<path d="M304.192 364.29H161.14V362.394H304.192V364.29Z" fill="#4A7E90"/>
<path d="M245.375 321.91H221.935C221.247 321.91 220.683 321.348 220.683 320.661V319.986C220.683 319.299 221.247 318.737 221.935 318.737H245.375C246.064 318.737 246.627 319.299 246.627 319.986V320.661C246.627 321.348 246.064 321.91 245.375 321.91Z" fill="#133E4D"/>
<path d="M304.192 422.412H161.14V420.516H304.192V422.412Z" fill="#4A7E90"/>
<path d="M245.375 371.381H221.935C221.247 371.381 220.683 370.819 220.683 370.132V369.457C220.683 368.77 221.247 368.208 221.935 368.208H245.375C246.064 368.208 246.627 368.77 246.627 369.457V370.132C246.627 370.819 246.064 371.381 245.375 371.381Z" fill="#133E4D"/>
<path d="M245.375 432.093H221.935C221.247 432.093 220.683 431.531 220.683 430.844V430.169C220.683 429.482 221.247 428.921 221.935 428.921H245.375C246.064 428.921 246.627 429.482 246.627 430.169V430.844C246.627 431.531 246.064 432.093 245.375 432.093Z" fill="#133E4D"/>
<path d="M349.243 381.42C352.392 381.915 359.715 379.731 360.251 379.68C364.794 379.245 360.412 374.784 360.412 374.784C360.412 374.784 353.272 373.219 352.075 373.31C351.683 373.341 351.034 373.471 350.331 373.643L351.558 374.837C351.558 374.837 345.608 375.464 345.546 376.844C345.48 378.227 346.495 380.989 349.243 381.42Z" fill="#F1D0A1"/>
<path d="M352.075 373.31L347.017 373.924C347.017 375.249 350.908 374.816 351.099 375.472C351.289 376.128 352.186 374.558 352.186 374.558L352.075 373.31Z" fill="#FFC97F"/>
<path d="M359.011 376.992C357.917 373.834 359.441 372.849 359.441 372.849C359.441 372.849 390.622 358.093 393.172 356.467C395.722 354.842 412.863 323.685 412.863 323.685C412.863 323.685 419.217 310.946 427.31 311.202C440.594 311.764 446.215 328.015 437.754 336.739C428.418 346.599 409.668 366.124 404.81 369.087C393.999 375.684 361.602 381.018 361.602 381.018C361.602 381.018 359.87 379.472 359.011 376.992Z" fill="#E1A95A"/>
<path d="M363.572 410.808C371.151 421.229 404.596 421.417 422.107 420.734C426.89 420.571 431.446 420.31 435.575 419.968C443.649 419.298 450.095 418.322 453.424 417.204C454.422 416.87 455.139 416.524 455.539 416.167C461.423 410.231 447.544 389.55 444.13 384.342C428.639 386.082 352.94 392.829 363.572 410.808Z" fill="#0C82AE"/>
<path d="M396.171 420.498C404.439 420.903 414.031 421.067 422.107 420.735L426.747 402.077C419.57 412.067 398.477 419.854 396.171 420.498Z" fill="#0A4D66"/>
<path d="M411.678 474.689H386.156C386.558 473.719 387.531 472.454 389.9 472.041C393.919 471.337 400.898 469.168 400.003 463.378C399.097 457.509 408.886 456.751 408.886 456.751C408.886 456.751 412.959 472.455 411.678 474.689Z" fill="#133E4D"/>
<path d="M363.159 409.849C363.159 409.849 394.819 459.556 397.452 465.463C397.452 465.463 408.223 466.464 410.815 458.784C410.815 458.784 391.995 406.327 383.724 402.004C375.453 397.681 363.159 409.849 363.159 409.849Z" fill="#0C82AE"/>
<path d="M427.005 305.2C427.005 305.2 416.103 320.09 406.385 320.887C406.385 320.887 407.083 317.733 408.642 314.667C409.644 312.696 409.622 310.366 408.528 308.446C406.679 305.204 405.681 302.882 405.724 302.966L410.193 294.895L411.116 290.556C414.412 300.85 423.584 304.787 427.005 305.2Z" fill="#F1D0A1"/>
<path d="M414.17 295.944C414.17 295.944 415.751 303.404 408.479 308.359C406.569 304.983 405.724 302.966 405.724 302.966L410.193 294.895C413.765 294.366 414.17 295.944 414.17 295.944Z" fill="#B19875"/>
<path d="M312.087 315.407H152.228V304.913H312.087V315.407Z" fill="#13546C"/>
<path d="M494.871 458.439C494.871 458.439 498.053 463.257 498.793 464.817C499.532 466.379 498.081 469.702 495.899 470.202C493.975 470.643 493.688 474.047 493.688 474.047H503.014C504.001 474.047 504.892 473.504 505.272 472.669C506.587 469.779 506.888 466.024 507.152 464.767C507.708 462.126 508.81 459.909 508.323 457.218C507.838 454.536 503.245 452.985 494.871 453.01C485.673 453.038 494.871 458.439 494.871 458.439Z" fill="#133E4D"/>
<path d="M467.453 400.345C460.421 407.782 408.781 392.395 413.109 388.475C414.21 387.479 413.834 386.284 414.281 384.679C416.424 377.071 412.158 364.054 410.329 359.008C405.757 347.665 401.941 329.454 406.266 319.794C415.941 316.972 421.266 302.769 421.266 302.769C424.694 302.805 457.841 318.672 464.318 362.055H464.321C466.021 371.465 466.772 382.974 467.656 392.18C468.008 395.377 468.622 399.108 467.453 400.345Z" fill="#FFBE66"/>
<path d="M426.79 392.964C430.77 393.849 464.446 394.688 466.338 400.499C466.951 401.694 466.523 404.716 465.324 408.893C462.67 418.126 456.24 432.993 448.898 446.175C467.759 447.264 493.419 451.419 493.419 451.419C497.616 456.155 495.858 461.698 495.858 461.698C475.042 463.609 442.585 473.102 425.442 472.995C422.136 472.995 419.662 470.652 418.657 467.59V467.587C412.448 448.724 426.79 392.964 426.79 392.964Z" fill="#0C82AE"/>
<path d="M465.324 410.295C454.913 409.967 428.802 397.174 429.229 397.071C434.092 395.878 438.44 395.052 442.321 394.53C453.08 395.396 464.484 397.237 466.338 401.162C466.951 402.462 466.523 405.75 465.324 410.295Z" fill="#0A4D66"/>
<path d="M426.406 304.896C426.406 304.896 413.307 307.617 412.028 319.073C411.096 327.416 417.733 346.309 417.733 346.309L421.977 344.571C421.977 344.571 413.954 321.245 415.188 317.276C416.77 312.188 424.303 304.577 431.229 307.617L426.406 304.896Z" fill="#0A4D66"/>
<path d="M467.453 400.344C460.421 407.781 407.668 392.559 411.996 388.638C418.595 381.704 412.206 364.89 410.329 359.008C409.901 357.838 405.869 343.979 405.813 343.829L420.663 340.619C427.311 352.764 444.283 361.836 464.321 362.055C466.021 371.465 466.772 382.974 467.656 392.18C468.008 395.377 468.622 399.107 467.453 400.344Z" fill="#0C82AE"/>
<path d="M355.486 473.42H345.262V359.715C345.262 351.762 338.779 345.292 330.81 345.292H304.192V335.088H330.81C344.416 335.088 355.486 346.136 355.486 359.715V473.42Z" fill="#4A7E90"/>
<path d="M327.055 346.942H325.209V333.904H327.055V346.942Z" fill="#133E4D"/>
<path d="M344.238 369.105V367.263H357.302V369.105H344.238Z" fill="#133E4D"/>
<path d="M344.238 390.995V389.152H357.302V390.995H344.238Z" fill="#133E4D"/>
<path d="M356.308 473.42H343.954V458.191H356.308V473.42Z" fill="#80B7CB"/>
<path d="M373.575 473.42C373.575 473.42 367.465 463.774 350.131 465.806C332.797 467.836 320.449 477.136 279.096 466.755C237.743 456.373 241.476 475.001 217.928 470.989C194.38 466.977 184.042 473.42 184.042 473.42H373.575Z" fill="#56D2FF"/>
<path d="M282.312 282.419H172.65C171.385 282.419 170.35 281.386 170.35 280.123C170.35 278.86 171.385 277.827 172.65 277.827H282.312C283.577 277.827 284.612 278.86 284.612 280.123C284.612 281.386 283.577 282.419 282.312 282.419Z" fill="#4A7E90"/>
<path d="M225.152 282.419C223.29 282.578 221.78 280.39 221.958 279.222C221.961 278.536 221.954 250.243 221.959 250.128C222.186 246.002 228.236 246.073 228.346 250.224V279.231C228.346 280.984 226.909 282.419 225.152 282.419Z" fill="#4B9BB9"/>
<path d="M236.918 235.982C238.477 234.456 234.974 233.042 233.815 232.678C229.327 230.439 223.693 229.557 218.677 229.002C217.294 228.83 215.86 228.663 214.534 229.085C212.276 229.95 209.566 231.702 210.274 234.499C211.986 240.147 217.438 245.233 223.613 244.947C224.89 245.105 226.866 244.322 226.305 242.776C227.568 243.347 235.244 245.413 233.785 242.048C234.746 242.289 235.885 242.39 236.782 241.902C237.498 241.423 237.439 240.163 236.681 239.753C237.395 240.14 238.479 239.135 238.65 238.495C238.933 237.434 237.647 236.499 236.918 235.982Z" fill="#F1D0A1"/>
<path d="M225.337 242.304C222.875 241.98 220.496 240.916 218.2 240.305C217.493 240.878 226.748 243.352 225.337 242.304Z" fill="#083849"/>
<path d="M233.152 241.44C232.491 241.37 225.139 238.451 225.989 239.485C226.649 239.556 234 242.475 233.152 241.44Z" fill="#083849"/>
<path d="M236.354 239.262C233.753 238.011 231.077 236.921 228.342 235.998C228.118 235.923 227.639 236.143 228.026 236.273C230.718 237.182 233.351 238.256 235.912 239.487C236.064 239.614 236.65 239.488 236.354 239.262Z" fill="#083849"/>
<path d="M236.363 235.751C234.624 234.754 232.642 234.093 230.682 233.652C230.586 233.634 230.335 233.643 230.297 233.763C230.255 233.895 230.418 233.94 230.515 233.96C231.447 234.14 232.352 234.431 233.238 234.766C234.097 235.141 235.047 235.387 235.822 235.912C235.953 236.056 236.531 236.009 236.363 235.751Z" fill="#083849"/>
<path d="M175.572 232.819C187.532 232.969 198.704 238.125 210.459 239.3C213.8 237.924 215.742 234.187 218.403 231.818C220.927 229.484 219.763 227.606 216.897 226.531C209.674 223.481 202.529 220.22 195.027 217.903C183.649 212.552 170.381 209.067 158.237 214.057C155.528 215.015 151.447 215.677 149.853 218.289C148.429 222.966 144.467 231.001 149.684 234.443C151.149 235.269 153.777 234.667 155.351 234.487C157.565 234.236 159.759 233.844 161.965 233.542C166.47 232.926 171.027 232.685 175.572 232.819Z" fill="#E3A958"/>
<path d="M159.858 214.331C159.339 216.003 157.333 216.658 155.739 217.176C154.589 217.804 153.76 218.921 152.859 219.858C152.31 220.475 151.802 221.123 151.381 221.835C151.012 222.466 150.494 224.516 149.676 224.489C146.418 223.286 143.862 218.732 142.072 215.833C141.423 214.64 140.56 213.584 139.936 212.372C139.51 211.544 137.792 209.948 138.287 208.99C139.702 207.325 142.212 207.272 143.9 205.866C146.642 203.981 149.513 199.927 153.234 201.942C156.894 204.806 161.606 209.122 159.858 214.331Z" fill="#F1D0A1"/>
<path d="M159.857 214.331C159.342 216.005 157.332 216.657 155.739 217.176C154.589 217.804 153.76 218.921 152.858 219.858C147.035 211.473 154.043 203.554 159.857 214.331Z" fill="#B19875"/>
<path d="M176.328 201.051C174.768 206.233 170.844 204.423 171.066 209.823C170.901 211.543 171.831 213.458 171.002 215.044C170.223 216.091 168.868 215.627 167.813 215.391C163.492 215.509 162.818 224.603 155.667 218.565C151.717 215.19 149.899 209.86 149.484 204.857C149.649 203.614 148.769 202.768 148.456 201.643C148.052 200.197 147.956 198.774 148.206 197.287C149.331 192.324 151.781 187.274 156.441 184.819C162.918 181.14 171.377 185.044 175.156 190.907C177.857 193.745 178.236 197.622 176.328 201.051Z" fill="#F1D0A1"/>
<path d="M147.303 196.067C146.819 197.995 145.968 199.919 145.9 201.911C146.435 205.309 152.57 202.644 154.795 202.465C158.312 200.962 161.786 199.149 164.318 196.214C165.272 195.151 166.508 194.032 167.962 193.753C171.662 193.309 174.692 196.089 177.755 197.684C179.743 198.646 181.658 196.025 179.658 194.735C181.052 194.302 181.28 192.426 180.386 191.397C180.009 190.915 179.793 190.632 179.772 190.021C179.751 189.414 179.938 188.811 179.388 188.356C175.71 187.347 177.759 184.436 173.973 183.562C169.055 182.693 164.787 178.728 159.527 179.911C150.816 181 149.522 189.095 147.303 196.067Z" fill="#102831"/>
<path d="M173.451 204.582C173.954 202.582 169.399 201.077 167.835 201.834C167.559 201.921 167.597 202.206 167.868 202.283C168.862 202.579 169.858 202.843 170.788 203.323C171.625 203.77 172.463 204.612 173.451 204.582Z" fill="#102831"/>
<path d="M160.281 203.518C161.915 201.556 162.367 196.444 158.916 196.083C152.185 195.706 154.271 210.21 160.281 203.518Z" fill="#E4C59A"/>
<path d="M168.996 205.255C169.66 204.39 170.929 205.301 170.407 206.149C170.037 206.666 169.396 207.302 168.703 207.198C167.565 206.782 168.438 205.824 168.996 205.255Z" fill="#102831"/>
<path d="M164.05 216.02C164.835 215.955 165.644 214.709 164.646 214.304C163.264 213.873 163.101 211.257 161.533 211.678C159.799 213.114 162.069 216.306 164.05 216.02Z" fill="white"/>
<path d="M127.08 306.79C127.201 306.85 127.38 306.874 127.577 306.871C127.41 307.419 127.242 307.967 127.077 308.515C126.845 309.286 128.82 309.412 129.009 308.786C134.753 289.538 141.827 270.707 149.864 252.301C151.39 248.578 151.894 244.905 151.896 240.899C151.866 235.76 151.711 230.574 151.28 225.469C150.162 222.251 148.588 219.101 146.928 216.108C145.28 213.513 141.9 208.329 138.772 207.923C132.383 209.715 127.007 213.935 121.552 217.547C116.709 221.534 113.622 227.555 110.025 232.643C106.124 238.685 104.163 245.667 102.478 252.613C99.6424 265.366 95.7496 278.336 95.3838 291.39C95.9995 293.143 99.1653 294.279 100.697 295.176C103.4 296.759 106.71 297.674 109.602 298.886C115.5 301.358 121.348 303.954 127.08 306.79Z" fill="#FFBE66"/>
<path d="M148.267 246.228C145.24 245.035 142.17 243.089 138.854 243.067C137.282 243.843 137.493 246.784 136.696 248.27C134.689 253.212 131.781 257.735 128.944 262.235C125.147 268.907 117.76 277.568 109.375 272.755C104.205 269.684 103.871 252.65 103.969 246.823C101.301 255.285 98.8424 263.811 96.3784 272.335C94.6342 278.413 92.7726 284.414 91.8799 290.686C91.8335 290.9 92.0449 291.054 92.3451 291.133C92.0304 291.3 91.7706 291.712 92.263 291.9C104.208 296.458 115.991 301.582 127.577 306.871C127.41 307.419 127.242 307.967 127.077 308.515C126.845 309.286 128.82 309.412 129.009 308.786C134.708 287.81 145.459 268.422 151.113 247.538C150.169 247.085 149.213 246.658 148.267 246.228Z" fill="#0C82AE"/>
<path d="M92.3969 473.776C92.3624 473.824 92.3286 473.862 92.2915 473.903L61.0484 473.421C60.8536 470.479 60.9987 466.425 63.47 464.481C63.9392 464.386 64.3819 464.704 64.7881 464.964C67.4808 466.817 71.2251 466.369 73.2205 463.742C75.1809 460.669 78.1631 463.697 80.2235 465.048C82.8631 467.391 94.336 469.273 92.3969 473.776Z" fill="#133E4D"/>
<path d="M92.397 473.776C92.3626 473.824 92.3288 473.862 92.2916 473.903L61.0486 473.421C60.9664 472.655 60.9392 471.886 60.9677 471.118L92.3122 471.604C92.7615 472.271 92.9046 473.017 92.397 473.776Z" fill="#133E4D"/>
<path d="M85.4026 468.703C83.604 467.366 81.1837 466.706 79.3301 465.303C78.7489 465.134 75.9344 462.423 75.9748 463.586C78.6157 465.688 81.6238 467.296 84.6411 468.706C84.9864 469.444 83.2879 470.4 83.5795 471.153C83.9592 471.759 84.6232 470.616 84.7279 470.378C84.9042 469.816 85.5762 469.336 85.4026 468.703Z" fill="#133E4D"/>
<path d="M80.7536 464.681C80.0372 464.531 79.6469 465.491 79.1883 465.91C78.9762 466.231 79.6621 466.311 79.8205 466.127C79.9524 465.741 81.3076 464.918 80.7536 464.681Z" fill="#133E4D"/>
<path d="M82.6915 465.753C82.5577 465.554 82.1918 465.547 82.0208 465.694C81.7584 466.113 81.268 466.483 81.1328 466.937C81.2687 467.137 81.6292 467.142 81.8035 466.997C82.0639 466.579 82.5583 466.206 82.6915 465.753Z" fill="#133E4D"/>
<path d="M84.5841 466.489C84.0626 466.25 82.9737 467.606 83.036 468.03C83.5085 468.397 83.8154 467.844 84.044 467.495C84.0473 467.489 84.0851 467.441 84.0897 467.438C84.1997 467.137 85.0838 466.737 84.5841 466.489Z" fill="#133E4D"/>
<path d="M131.948 298.081C130.903 295.53 127.654 294.903 125.472 293.591C115.916 288.755 106.146 284.136 95.7191 281.504C95.8398 280.893 94.0425 280.736 93.7615 281.323C91.495 286.057 89.2318 290.802 87.3205 295.692C87.1251 296.366 86.8957 297.345 85.9958 297.231C85.0415 297.184 84.8924 298.401 84.6061 299.075C82.2501 304.328 81.5721 310.069 81.3024 315.758C81.0307 319.506 80.7431 323.253 80.4747 327.001C80.364 327.699 80.7583 328.335 81.4926 328.412C80.4336 341.204 80.2997 353.986 77.342 366.528C69.7606 399.939 60.8676 433.995 59.1074 468.172C59.9636 469.175 66.0401 467.13 67.339 466.94C70.2165 466.518 73.0808 466.009 75.9616 465.612C77.9166 465.343 81.3256 466.046 82.8472 464.51C84.4238 462.919 84.5544 458.047 85.0348 455.902C87.4776 445.007 90.0536 434.131 93.2896 423.438C99.1752 405.056 105.76 386.899 111.694 368.514C117.594 351.595 119.167 333.459 125.766 316.745C127.567 312.206 129.502 307.712 130.948 303.043C131.373 301.674 132.335 299.526 131.948 298.081Z" fill="#0C82AE"/>
<path d="M136.124 444.05C136.621 439.941 135.212 438.901 131.339 439.499C129.556 440.028 127.834 440.051 126.015 440.372C124.234 440.883 123.139 442.638 123.374 444.475C123.301 451.62 123.933 458.868 123.275 465.977C122.723 470.242 128.717 468.5 131.211 468.151C132.764 467.741 134.748 467.774 135.906 466.42C137.167 464.946 136.244 461.242 136.178 459.339C136 454.245 135.982 449.144 136.124 444.05Z" fill="#133E4D"/>
<path d="M152.734 473.776C152.699 473.824 152.666 473.862 152.629 473.903L121.386 473.421C121.19 470.479 121.336 466.424 123.808 464.481C124.277 464.386 124.72 464.704 125.125 464.964C127.818 466.817 131.562 466.369 133.558 463.742C135.518 460.669 138.501 463.697 140.561 465.048C143.2 467.39 154.674 469.273 152.734 473.776Z" fill="#133E4D"/>
<path d="M152.734 473.776C152.699 473.824 152.666 473.862 152.629 473.903L121.386 473.421C121.303 472.655 121.276 471.886 121.305 471.118L152.65 471.604C153.099 472.271 153.242 473.017 152.734 473.776Z" fill="#133E4D"/>
<path d="M145.74 468.703C143.942 467.366 141.521 466.706 139.668 465.303C139.087 465.134 136.272 462.423 136.312 463.586C138.953 465.688 141.961 467.296 144.978 468.706C145.323 469.444 143.625 470.4 143.917 471.153C144.297 471.759 144.961 470.616 145.066 470.378C145.243 469.816 145.914 469.336 145.74 468.703Z" fill="#133E4D"/>
<path d="M139.47 463.634C138.711 463.501 138.33 464.551 137.778 464.946C137.599 465.182 138.016 465.294 138.19 465.255C138.763 464.997 139.115 464.329 139.598 463.917C139.712 463.797 139.595 463.675 139.47 463.634Z" fill="#133E4D"/>
<path d="M141.091 464.681C140.375 464.53 139.984 465.491 139.526 465.91C139.313 466.231 140 466.311 140.158 466.127C140.29 465.741 141.645 464.919 141.091 464.681Z" fill="#133E4D"/>
<path d="M143.028 465.753C142.895 465.554 142.529 465.547 142.358 465.694C142.096 466.113 141.604 466.483 141.47 466.937C141.606 467.137 141.967 467.142 142.141 466.997C142.402 466.579 142.895 466.206 143.028 465.753Z" fill="#133E4D"/>
<path d="M144.922 466.489C144.4 466.25 143.311 467.606 143.373 468.03C143.846 468.397 144.153 467.844 144.382 467.495C144.384 467.489 144.423 467.441 144.427 467.438C144.538 467.137 145.422 466.737 144.922 466.489Z" fill="#133E4D"/>
<path d="M150.491 395.024C147.435 369.958 140.67 345.419 135.971 320.608C134.51 313.621 133.048 306.634 131.587 299.645C131.434 298.913 129.453 299.02 129.597 299.706C117.041 303.739 112.203 318.114 110.447 329.973C107.678 340.297 106.354 351.018 105.981 361.704C111.717 378.057 117.705 394.347 123.583 410.659C122.671 427.768 120.971 449.444 118.959 468.474C118.932 468.73 119.212 468.897 119.568 468.965C121.526 469.761 145.681 463.865 143.961 461.185C146.213 439.177 149.793 417.128 150.491 395.024Z" fill="#0C82AE"/>
<path d="M141.584 252.401L136.675 251.418C139.672 234.684 149.014 205.779 119.361 221.043C118.813 221.458 115.591 223.545 116.663 221.489C119.491 217.977 123.321 215.434 127.086 212.949C134.483 209.423 143.832 213.747 145.188 222.366C146.506 232.398 143.088 243.057 141.584 252.401Z" fill="#0C82AE"/>
<path d="M133.124 406.636C132.837 402.81 131.833 399.242 130.366 395.708C127.389 388.539 124.668 381.301 122.408 373.872C120.137 366.406 118.257 358.825 116.711 351.178C116.373 350.441 116.568 348.181 115.724 348.137C119.539 333.153 124.247 318.289 131.359 304.509C131.487 304.259 130.752 304.179 130.634 304.407C126.432 312.556 123.053 321.106 120.219 329.817C117.378 338.543 115.072 347.431 112.959 356.357C111.899 360.835 110.889 365.326 109.886 369.817C109.761 370.378 109.636 370.938 109.511 371.499C109.46 371.728 110.2 371.775 110.262 371.499C111.942 363.964 113.628 356.43 115.522 348.945C118.41 363.884 122.548 378.611 128.34 392.696C134.098 403.633 132.516 415.094 131.027 426.829C129.791 438.913 129.136 451.056 129.068 463.204C129.201 464.102 128.573 467.317 129.814 466.24C129.797 458.142 130.035 450.044 130.536 441.961C130.982 430.158 133.566 418.458 133.124 406.636Z" fill="#102831"/>
<path d="M91.6793 297.511C90.275 297.043 88.6666 297.26 87.192 297.057C86.7096 297.04 86.701 297.45 87.192 297.44C88.4671 297.619 89.9191 297.441 91.1233 297.792C91.3837 299.804 90.7621 301.977 90.6918 304.035C90.2591 303.798 80.9923 303.802 83.3907 304.495C85.801 304.196 88.2385 304.17 90.6541 304.418C89.7276 311.958 89.4923 319.706 88.0271 327.128C86.7063 328.688 84.1985 327.673 82.3993 327.898C82.2879 327.896 82.0242 327.934 82.0242 328.089C82.0242 328.247 82.2946 328.278 82.3993 328.28C84.5074 328.114 87.8037 329.219 88.931 326.837C89.499 324.183 89.5692 321.421 89.937 318.726C90.6401 312.22 91.2976 305.709 91.9119 299.194C91.9603 298.682 92.1756 297.878 91.6793 297.511Z" fill="#102831"/>
<path d="M143.284 453.688C140.94 456.802 137.142 458.249 133.847 460.117C133.709 460.191 133.717 460.312 133.847 460.388C135.908 460.023 137.933 458.319 139.872 457.37C140.475 457.214 145.788 452.979 143.284 453.688Z" fill="#102831"/>
<path d="M82.7293 453.008C80.1017 455.528 76.4667 456.599 73.7337 458.983C73.6031 459.097 73.7595 459.208 73.8688 459.245C74.0193 459.295 74.2559 459.286 74.3824 459.176C74.6621 458.419 86.0668 452.57 82.7293 453.008Z" fill="#102831"/>
<path d="M133.403 292.766C125.398 291.692 117.494 289.874 109.827 287.339C111.929 281.225 114.259 275.186 116.878 269.272C116.994 269.008 116.257 268.938 116.154 269.171C113.557 275.05 111.245 281.044 109.152 287.114C104.211 285.459 99.374 283.501 94.67 281.262C94.4845 281.112 93.7833 281.261 94.1392 281.532C98.9677 283.827 103.935 285.833 109.009 287.525C108.659 288.545 108.313 289.567 107.975 290.591C102.772 288.933 97.8199 286.601 92.9198 284.214C92.7342 284.064 92.0324 284.213 92.3883 284.484C97.4137 286.929 102.494 289.325 107.841 290.995C102.393 307.594 98.5204 324.65 94.8569 341.714C86.4325 381.214 78.0657 420.725 69.6545 460.228L68.5968 465.202C68.5478 465.434 69.2893 465.479 69.3477 465.202C77.731 425.778 86.1091 386.353 94.4937 346.929C98.482 328.192 102.56 309.429 108.527 291.202C113.093 292.544 117.805 293.286 122.483 294.149C125.599 294.526 129.243 295.784 132.225 295.727C124.735 293.675 116.281 293.153 108.659 290.802C108.995 289.781 109.34 288.763 109.688 287.746C117.34 290.254 125.221 292.064 133.203 293.134C133.542 293.233 133.95 292.862 133.403 292.766Z" fill="#102831"/>
<path d="M148.846 251.728C147.029 251.724 141.822 249.398 141.046 251.338C139.456 255.686 136.887 260.371 135.842 264.593C135.795 264.94 145.38 266.636 143.479 265.64C141.111 265.342 138.756 264.945 136.423 264.44C138.351 259.999 139.967 255.333 142.056 251.003C142.373 250.517 150.494 252.924 148.846 251.728Z" fill="#102831"/>
<path d="M112.659 265.553C112.666 266.814 112.727 268.068 112.855 269.306C113.058 271.253 113.64 273.213 114.874 274.734C119.287 280.165 127.643 276.325 130.412 271.241C133.151 266.215 134.577 260.599 135.979 255.051C138.083 246.722 139.994 238.427 140.018 229.772C140.023 227.655 139.9 225.489 139.098 223.529C138.297 221.569 136.705 219.825 134.643 219.332C133.119 218.968 131.504 219.313 130.052 219.904C122.506 222.975 119.901 232.235 117.479 239.225C115.759 244.187 114.464 249.298 113.649 254.486C113.085 258.084 112.639 261.849 112.659 265.553Z" fill="#FFBE66"/>
<path d="M183.363 262.472C183.047 262.249 182.666 262.178 182.315 262.024C181.903 261.843 181.56 261.562 181.198 261.302C179.732 260.251 177.912 260.543 176.207 260.585C174.574 260.624 172.648 260.58 171.4 261.818C170.739 262.473 170.199 263.208 169.471 263.803C168.731 264.407 167.922 264.886 167.051 265.276C166.972 265.311 166.922 265.357 166.878 265.405C166.732 265.463 166.61 265.54 166.56 265.656C165.419 268.302 165.332 272.869 169.168 273.138C170.086 273.202 170.82 272.918 171.471 272.462C172.618 271.838 173.492 270.869 174.134 269.658C174.502 268.963 174.811 268.238 175.083 267.5C175.208 267.222 175.331 266.946 175.457 266.663C175.783 265.932 176.19 265.21 176.995 264.937C177.816 264.659 178.745 264.858 179.582 264.938C180.789 265.053 183.016 265.254 183.721 263.939C184.012 263.398 183.85 262.816 183.363 262.472Z" fill="#DEC095"/>
<path d="M192.504 251.486C192.5 251.493 192.254 251.864 192.249 251.871C191.268 253.346 189.806 254.007 188.407 252.833C187.36 251.957 187.477 250.456 188.083 249.235C188.091 249.221 188.084 249.235 188.091 249.221C188.427 248.568 187.305 247.82 186.663 248.178C186 248.547 185.414 249.075 184.965 249.75C183.794 251.511 183.916 253.747 185.095 255.361L176.097 268.896C174.499 268.7 172.845 269.29 171.76 270.556C170.96 271.492 170.575 272.614 170.566 273.725C170.562 274.343 171.712 275.272 172.05 274.753C172.055 274.747 172.301 274.377 172.305 274.37C173.286 272.894 174.748 272.234 176.148 273.407C177.194 274.284 177.078 275.785 176.471 277.006C176.464 277.02 176.471 277.006 176.464 277.02C176.127 277.672 177.249 278.42 177.891 278.062C178.554 277.693 179.141 277.165 179.589 276.491C180.859 274.582 180.61 272.113 179.139 270.485L187.945 257.24C189.695 257.649 191.591 257.087 192.793 255.683C193.595 254.748 193.98 253.626 193.988 252.516C193.993 251.897 192.843 250.968 192.504 251.486Z" fill="#102831"/>
<path d="M186.962 264.557C187.032 263.894 186.758 263.158 186.123 262.879C185.726 262.703 185.281 262.683 184.848 262.666C182.763 262.582 180.679 262.498 178.593 262.413C176.96 262.348 175.378 262.533 173.753 262.629C172.929 262.677 172.085 262.73 171.331 263.063C170.695 263.344 170.168 263.806 169.582 264.171C168.988 264.542 168.368 264.729 167.689 264.882C166.247 265.206 164.766 265.338 163.289 265.356C161.87 265.375 160.656 265.122 159.932 266.695C159.542 267.542 159.526 268.505 159.516 269.437C159.498 271.131 159.481 272.826 159.462 274.52C159.458 274.957 159.458 275.415 159.668 275.799C160.193 276.762 161.946 276.04 162.788 275.954C164.15 275.816 165.553 275.775 166.89 276.12C169.554 276.81 172.362 276.648 175.074 276.388C176.44 276.258 177.802 276.09 179.169 275.968C180.367 275.861 181.362 275.745 182.293 274.877C182.621 274.572 182.905 274.198 183.005 273.762C183.104 273.325 182.986 272.82 182.631 272.545C183.172 272.279 183.577 271.754 183.696 271.164C183.816 270.574 183.648 269.931 183.253 269.476C183.646 269.164 183.978 268.753 184.104 268.268C184.167 268.023 184.171 267.76 184.109 267.515C184.065 267.345 183.789 267.014 183.821 266.854C183.887 266.525 184.84 266.305 185.138 266.124C186.071 266.05 186.875 265.399 186.962 264.557Z" fill="#F1D0A1"/>
<path d="M183.36 266.452C182.787 266.472 182.213 266.486 181.642 266.428C181.044 266.366 180.468 266.293 179.872 266.412C179.762 266.434 179.559 266.533 179.635 266.673C179.712 266.814 179.988 266.782 180.109 266.758C180.618 266.657 181.162 266.794 181.672 266.833C182.247 266.877 182.824 266.853 183.4 266.832C183.514 266.828 183.765 266.755 183.753 266.603C183.741 266.443 183.461 266.448 183.36 266.452Z" fill="#083849"/>
<path d="M182.547 269.342C181.659 269.422 180.768 269.463 179.877 269.461C179.741 269.461 179.488 269.487 179.432 269.641C179.377 269.794 179.616 269.848 179.717 269.848C180.675 269.85 181.633 269.808 182.587 269.723C182.701 269.713 182.952 269.65 182.94 269.494C182.928 269.338 182.648 269.333 182.547 269.342Z" fill="#083849"/>
<path d="M182.09 272.542C181.948 272.437 181.724 272.475 181.572 272.527C180.935 272.747 180.295 272.82 179.618 272.774C179.482 272.765 179.228 272.806 179.172 272.955C179.113 273.112 179.361 273.155 179.457 273.162C180.315 273.221 181.171 273.096 181.983 272.817C182.098 272.778 182.222 272.64 182.09 272.542Z" fill="#083849"/>
<path d="M166.501 263.85C166.829 263.891 167.155 263.935 167.483 263.98C167.943 264.043 167.786 264.651 167.747 264.97C167.292 268.762 166.643 272.531 165.804 276.256C165.615 277.095 164.952 277.31 164.136 277.383C160.433 277.709 156.711 277.717 152.993 277.724C152.621 277.725 152.249 277.725 151.878 277.726C141.393 277.745 130.858 277.948 120.383 277.499C120.163 277.49 119.935 277.478 119.739 277.378C119.473 277.243 119.31 276.97 119.185 276.699C118.465 275.126 118.895 273.129 119.28 271.496C119.666 269.849 120.375 268.283 121.311 266.877C123.162 264.095 125.944 261.861 129.158 260.874C130.592 260.434 132.126 260.792 133.552 261.056C135.011 261.326 136.575 261.343 138.067 261.547C147.491 262.834 157.068 262.657 166.501 263.85Z" fill="#FFBE66"/>
<path d="M400.1 374.186C400.1 374.186 393.276 374.64 393.693 375.374C394.11 376.108 397.082 376.513 397.082 376.513L399.521 375.051L400.1 374.186Z" fill="#D5B88F"/>
<path d="M407.567 380.705L372.474 365.679L374.058 361.997L374.714 360.471L357.172 352.961C355.465 352.23 353.483 353.323 353.077 355.22L352.135 359.63C351.875 360.849 352.474 362.058 353.57 362.528L354.626 362.979L355.024 360.563C355.366 358.486 357.508 357.236 359.363 358.03L364.555 360.253L363.815 361.972L359.882 360.287L358.181 364.243L405.6 384.546C406.548 384.952 407.646 384.513 408.053 383.568L408.395 382.772C408.738 381.973 408.368 381.048 407.567 380.705Z" fill="#102831"/>
<path d="M370.848 363.85C370.977 363.549 370.838 363.2 370.536 363.071C370.235 362.942 369.885 363.082 369.756 363.383C369.626 363.685 369.767 364.033 370.068 364.162C370.369 364.291 370.719 364.152 370.848 363.85Z" fill="#ACCFDB"/>
<path d="M367.353 362.355C367.482 362.054 367.342 361.704 367.041 361.575C366.74 361.446 366.39 361.586 366.261 361.887C366.131 362.188 366.271 362.537 366.573 362.666C366.874 362.795 367.223 362.656 367.353 362.355Z" fill="#ACCFDB"/>
<path d="M410.198 373.896C410.198 373.896 407.832 374.376 405.305 374.382C403.034 374.387 400.646 373.894 399.545 374.313C397.217 375.199 389.781 379.97 393.23 382.217C396.679 384.465 400.327 383.826 402.788 381.956C405.25 380.086 411.784 380.129 411.784 380.129L410.198 373.896Z" fill="#F1D0A1"/>
<path d="M433.793 315.406C449.596 319.926 459.285 357.736 457.081 369.061C454.878 380.386 410.295 381.061 410.295 381.061C410.295 381.061 407.787 379.108 407.489 377.088C407.107 374.509 407.508 373.326 407.508 373.326C407.508 373.326 435.684 365.637 436.323 362.389C436.962 359.14 422.715 341.948 422.913 332.609C423.111 323.27 425.184 312.945 433.793 315.406Z" fill="#FFBE66"/>
<path d="M404.17 307.294C404.17 307.294 418.093 300.331 413.617 291.743C409.142 283.156 407.925 276.474 398.846 280.557C389.768 284.64 389.763 288.807 390.558 292.036C391.353 295.265 400.433 308.884 404.17 307.294Z" fill="#F1D0A1"/>
<path d="M414.148 274.971C414.231 274.762 414.505 274.521 415.202 274.235C415.202 274.235 414.508 274.072 413.742 274.317C413.245 273.366 412.103 271.775 410.253 271.934C410.253 271.934 411.338 272.111 411.828 273.135C409.144 271.767 404.405 271.738 393.042 276.726C378.066 283.299 386.619 291.537 389.028 292.038C391.437 292.538 395.321 287.53 399.14 286.541C402.96 285.551 405.559 290.749 407.079 291.059C408.598 291.369 407.644 290.219 409.078 288.847C410.511 287.474 411.67 290.282 411.825 292.316C411.981 294.349 414.366 296.116 414.366 296.116C414.366 296.116 415.178 295.994 416.647 292.588C418.06 288.768 416.728 277.044 414.148 274.971Z" fill="#102831"/>
<path d="M394.779 293.226C394.1 293.488 393.55 294.006 393.213 294.657C393.106 294.86 392.726 295.406 393.135 295.417C393.523 295.427 393.886 295.056 394.183 294.858C394.802 294.444 395.547 294.27 396.283 294.135C396.58 294.08 396.882 294.057 396.803 293.693C396.641 292.632 395.483 293 394.779 293.226Z" fill="#102831"/>
<path d="M402.235 291.051C403.687 291.038 404.83 291.223 405.529 291.753C405.578 291.822 405.529 291.898 405.45 291.9C404.01 292.145 402.599 292.223 401.192 292.681C400.793 292.812 400.026 292.922 399.934 292.302C399.984 291.388 401.492 291.099 402.235 291.051Z" fill="#102831"/>
<path d="M396.377 296.735C396.141 296.081 395.211 295.684 395.005 296.553C394.912 296.852 394.966 297.184 395.135 297.446C395.558 298.51 396.945 297.669 396.377 296.735Z" fill="#102831"/>
<path d="M403.653 294.161C403.229 293.139 401.892 293.333 402.209 294.504C402.306 294.858 402.479 295.278 402.854 295.413C403.552 295.643 404.044 294.733 403.653 294.161Z" fill="#102831"/>
<path d="M399.499 299.09C399.479 297.424 399.825 295.651 398.877 294.137L399.499 299.09Z" fill="#E1AB5F"/>
<path d="M403.973 302.938C404.381 302.378 404.904 301.466 404.32 301.33C402.742 301.654 401.196 302.292 399.631 302.724C398.72 303.007 400.473 303.932 400.755 304.035C401.957 304.547 403.264 303.966 403.973 302.938Z" fill="white"/>
<path d="M558.908 475.923L6.29761 476.124C5.73828 476.124 5.28101 475.668 5.28101 475.11V474.6C5.28101 474.042 5.73828 473.585 6.29761 473.585L558.908 473.384C559.467 473.384 559.925 473.841 559.925 474.399V474.908C559.925 475.466 559.468 475.923 558.908 475.923Z" fill="#133E4D"/>
<mask id="mask0_23_2298" style="mask-type:luminance" maskUnits="userSpaceOnUse" x="271" y="360" width="156" height="156">
<path d="M271.209 360.359H426.287V515.123H271.209V360.359Z" fill="white"/>
</mask>
<g mask="url(#mask0_23_2298)">
<mask id="mask1_23_2298" style="mask-type:luminance" maskUnits="userSpaceOnUse" x="364" y="465" width="87" height="40">
<path d="M409.128 475.573C407.548 475.573 407.351 474.283 407.195 473.09C407.114 472.462 409.128 465.476 409.128 465.476C409.128 465.476 410.922 472.315 410.922 472.946C410.922 474.068 410.994 475.573 409.128 475.573Z" fill="white"/>
<path d="M450.123 465.542H364.543V504.233H450.123V465.542Z" fill="black"/>
</mask>
<g mask="url(#mask1_23_2298)">
<path d="M486.595 370.104H210.901V524.868H486.595V370.104Z" fill="black"/>
</g>
<path d="M348.891 472.745C360.911 472.745 370.67 473.691 370.67 474.856C370.67 476.021 360.911 476.968 348.891 476.968C336.872 476.968 327.112 476.021 327.112 474.856C327.112 473.691 336.872 472.745 348.891 472.745Z" stroke="#56D2FF" stroke-width="0.737893"/>
<path d="M334.11 468.019C334.265 468.019 334.39 468.145 334.39 468.299C334.39 468.453 334.265 468.578 334.11 468.578C333.956 468.578 333.83 468.453 333.83 468.299C333.83 468.145 333.956 468.019 334.11 468.019Z" fill="#56D2FF"/>
<path d="M361.141 474.183C361.185 474.183 361.221 474.219 361.221 474.263C361.221 474.307 361.185 474.343 361.141 474.343C361.097 474.343 361.061 474.307 361.061 474.263C361.061 474.219 361.097 474.183 361.141 474.183Z" fill="#56D2FF"/>
<path d="M352.103 470.92C352.258 470.92 352.383 471.045 352.383 471.199C352.383 471.354 352.258 471.479 352.103 471.479C351.949 471.479 351.823 471.354 351.823 471.199C351.823 471.045 351.949 470.92 352.103 470.92Z" fill="#56D2FF"/>
</g>
<mask id="mask2_23_2298" style="mask-type:luminance" maskUnits="userSpaceOnUse" x="295" y="365" width="59" height="53">
<path d="M353.716 365.12H295.401V417.77H353.716V365.12Z" fill="white"/>
</mask>
<g mask="url(#mask2_23_2298)">
<mask id="mask3_23_2298" style="mask-type:luminance" maskUnits="userSpaceOnUse" x="301" y="382" width="21" height="26">
<path d="M307.368 382.791C307.371 382.794 307.375 382.8 307.379 382.807C307.383 382.814 307.387 382.822 307.391 382.831C307.394 382.841 307.397 382.85 307.399 382.859C307.401 382.868 307.401 382.876 307.398 382.882C307.376 382.947 307.345 383.013 307.308 383.079C307.271 383.146 307.228 383.213 307.183 383.282C307.138 383.35 307.091 383.419 307.044 383.489C306.998 383.559 306.953 383.63 306.913 383.701C306.873 383.769 306.834 383.839 306.794 383.908C306.755 383.978 306.715 384.048 306.675 384.117C306.634 384.186 306.594 384.255 306.552 384.322C306.511 384.389 306.469 384.455 306.427 384.519C306.334 384.657 306.244 384.802 306.157 384.947C306.069 385.092 305.983 385.238 305.898 385.379C305.813 385.52 305.729 385.656 305.645 385.782C305.562 385.908 305.478 386.025 305.394 386.126C305.336 386.194 305.268 386.272 305.192 386.353C305.117 386.434 305.036 386.517 304.953 386.596C304.87 386.676 304.786 386.751 304.706 386.816C304.626 386.882 304.55 386.936 304.483 386.974C304.451 386.992 304.399 387.016 304.338 387.04C304.278 387.064 304.209 387.088 304.141 387.109C304.074 387.13 304.008 387.148 303.955 387.157C303.902 387.166 303.862 387.167 303.845 387.156C303.824 387.142 303.808 387.104 303.797 387.052C303.785 387 303.777 386.935 303.773 386.865C303.769 386.796 303.769 386.723 303.771 386.657C303.773 386.59 303.778 386.531 303.784 386.489C303.791 386.446 303.807 386.388 303.828 386.324C303.849 386.259 303.876 386.187 303.905 386.115C303.934 386.043 303.966 385.971 303.998 385.905C304.029 385.839 304.06 385.779 304.088 385.731C304.114 385.687 304.144 385.642 304.178 385.595C304.211 385.549 304.247 385.502 304.284 385.454C304.321 385.406 304.36 385.357 304.399 385.307C304.438 385.258 304.476 385.207 304.513 385.156C304.659 384.953 304.81 384.759 304.968 384.572C305.125 384.385 305.288 384.205 305.455 384.03C305.623 383.855 305.795 383.685 305.971 383.519C306.17 383.331 306.394 383.164 306.623 383.033C306.852 382.902 307.086 382.806 307.307 382.761C307.324 382.758 307.336 382.762 307.345 382.768C307.354 382.775 307.361 382.784 307.368 382.791Z" fill="white"/>
<path d="M321.947 390.642C321.949 390.644 321.951 390.645 321.953 390.647C321.955 390.649 321.957 390.65 321.96 390.652C321.962 390.653 321.964 390.655 321.966 390.657C321.968 390.658 321.97 390.66 321.972 390.662C321.974 390.664 321.975 390.666 321.977 390.669C321.978 390.671 321.979 390.674 321.979 390.677C321.98 390.681 321.98 390.684 321.98 390.688C321.979 390.693 321.979 390.697 321.977 390.702C321.968 390.737 321.957 390.772 321.946 390.807C321.936 390.843 321.924 390.879 321.912 390.916C321.9 390.953 321.888 390.99 321.875 391.028C321.862 391.066 321.849 391.105 321.835 391.144C321.822 391.183 321.809 391.223 321.795 391.263C321.781 391.304 321.767 391.345 321.754 391.386C321.74 391.428 321.726 391.47 321.713 391.513C321.7 391.555 321.686 391.598 321.673 391.642C321.663 391.679 321.652 391.717 321.642 391.756C321.632 391.795 321.622 391.835 321.612 391.875C321.602 391.915 321.592 391.956 321.582 391.997C321.572 392.038 321.561 392.08 321.55 392.121C321.539 392.162 321.527 392.203 321.515 392.243C321.502 392.283 321.488 392.323 321.474 392.362C321.459 392.401 321.443 392.439 321.426 392.476C321.409 392.512 321.39 392.548 321.37 392.582C321.353 392.609 321.331 392.64 321.303 392.673C321.276 392.706 321.244 392.74 321.208 392.775C321.172 392.809 321.133 392.843 321.091 392.875C321.049 392.907 321.005 392.937 320.959 392.963C320.914 392.988 320.867 393.01 320.82 393.026C320.774 393.042 320.727 393.052 320.681 393.055C320.636 393.057 320.592 393.052 320.55 393.036C320.51 393.022 320.476 392.991 320.447 392.947C320.418 392.904 320.394 392.849 320.376 392.787C320.358 392.724 320.345 392.655 320.339 392.584C320.332 392.513 320.332 392.44 320.337 392.37C320.343 392.296 320.362 392.216 320.389 392.135C320.416 392.055 320.451 391.975 320.488 391.899C320.526 391.824 320.566 391.753 320.603 391.693C320.64 391.633 320.675 391.584 320.701 391.551C320.736 391.508 320.777 391.464 320.822 391.421C320.867 391.377 320.915 391.334 320.965 391.291C321.014 391.247 321.064 391.204 321.112 391.162C321.161 391.119 321.207 391.077 321.248 391.036C321.282 391.003 321.332 390.951 321.391 390.895C321.45 390.839 321.517 390.779 321.586 390.728C321.655 390.677 321.725 390.635 321.787 390.616C321.85 390.597 321.906 390.601 321.947 390.642Z" fill="white"/>
<path d="M302.752 391.036C302.794 391.046 302.832 391.059 302.866 391.076C302.899 391.093 302.928 391.114 302.952 391.141C302.976 391.167 302.994 391.199 303.007 391.237C303.019 391.274 303.025 391.318 303.025 391.369C303.025 391.402 303.017 391.433 303.004 391.463C302.991 391.494 302.973 391.524 302.952 391.555C302.931 391.586 302.908 391.618 302.884 391.652C302.859 391.687 302.835 391.723 302.812 391.763C302.782 391.816 302.757 391.867 302.735 391.913C302.713 391.96 302.693 392.002 302.674 392.04C302.654 392.077 302.635 392.109 302.613 392.134C302.591 392.159 302.567 392.177 302.539 392.188C302.513 392.197 302.467 392.204 302.41 392.208C302.354 392.212 302.287 392.213 302.222 392.211C302.156 392.209 302.092 392.204 302.04 392.195C301.988 392.186 301.948 392.174 301.931 392.157C301.912 392.138 301.902 392.113 301.897 392.083C301.893 392.054 301.895 392.02 301.901 391.984C301.907 391.949 301.916 391.911 301.927 391.874C301.938 391.836 301.951 391.799 301.962 391.763C301.99 391.676 302.033 391.581 302.086 391.491C302.14 391.4 302.204 391.313 302.275 391.239C302.346 391.166 302.424 391.105 302.505 391.068C302.586 391.031 302.669 391.017 302.752 391.036Z" fill="white"/>
<path d="M306.791 395.582C306.822 395.601 306.842 395.63 306.855 395.666C306.867 395.701 306.871 395.744 306.869 395.792C306.867 395.84 306.859 395.893 306.847 395.949C306.834 396.004 306.817 396.062 306.798 396.12C306.779 396.178 306.757 396.237 306.735 396.293C306.713 396.349 306.691 396.403 306.67 396.452C306.649 396.501 306.63 396.546 306.614 396.584C306.598 396.622 306.585 396.652 306.578 396.674C306.561 396.726 306.544 396.777 306.528 396.827C306.512 396.876 306.497 396.925 306.482 396.972C306.467 397.02 306.453 397.066 306.439 397.112C306.425 397.157 306.411 397.202 306.398 397.246C306.385 397.289 306.372 397.332 306.359 397.374C306.346 397.416 306.333 397.458 306.32 397.498C306.308 397.539 306.295 397.579 306.282 397.618C306.27 397.657 306.257 397.696 306.244 397.735C306.15 398.015 306.052 398.292 305.951 398.566C305.85 398.839 305.745 399.109 305.636 399.374C305.528 399.64 305.415 399.9 305.298 400.155C305.181 400.41 305.06 400.66 304.934 400.904C304.809 401.147 304.678 401.384 304.543 401.614C304.475 401.731 304.391 401.883 304.295 402.042C304.198 402.201 304.089 402.367 303.968 402.513C303.846 402.658 303.714 402.783 303.571 402.86C303.429 402.937 303.276 402.965 303.116 402.918C303.031 402.893 302.963 402.832 302.911 402.746C302.859 402.66 302.823 402.55 302.804 402.427C302.784 402.303 302.78 402.166 302.792 402.027C302.803 401.888 302.831 401.747 302.873 401.614C302.916 401.479 302.972 401.344 303.035 401.21C303.099 401.075 303.172 400.941 303.248 400.806C303.324 400.672 303.405 400.539 303.486 400.405C303.566 400.272 303.647 400.14 303.723 400.008C303.796 399.883 303.87 399.757 303.946 399.631C304.022 399.504 304.099 399.376 304.178 399.248C304.257 399.119 304.337 398.989 304.418 398.858C304.499 398.727 304.582 398.595 304.665 398.462C304.78 398.278 304.893 398.09 305.007 397.899C305.121 397.709 305.235 397.516 305.351 397.322C305.467 397.128 305.586 396.934 305.709 396.739C305.832 396.545 305.959 396.351 306.092 396.158C306.131 396.102 306.182 396.031 306.239 395.956C306.296 395.882 306.36 395.806 306.425 395.74C306.49 395.674 306.556 395.62 306.619 395.589C306.682 395.558 306.741 395.552 306.791 395.582Z" fill="white"/>
<path d="M311.529 405.434C311.536 405.436 311.544 405.438 311.553 405.441C311.562 405.443 311.573 405.446 311.583 405.45C311.594 405.453 311.606 405.457 311.617 405.461C311.629 405.466 311.641 405.471 311.653 405.477C311.665 405.483 311.676 405.489 311.687 405.497C311.698 405.504 311.708 405.513 311.717 405.523C311.727 405.532 311.735 405.543 311.742 405.555C311.788 405.635 311.81 405.756 311.813 405.894C311.817 406.032 311.803 406.187 311.775 406.336C311.748 406.485 311.707 406.629 311.659 406.744C311.611 406.859 311.556 406.945 311.499 406.979C311.472 406.995 311.434 407.011 311.39 407.024C311.346 407.038 311.296 407.05 311.245 407.057C311.194 407.065 311.143 407.069 311.097 407.066C311.052 407.064 311.011 407.056 310.982 407.04C310.967 407.031 310.958 407.018 310.951 407.002C310.945 406.985 310.942 406.964 310.938 406.941C310.935 406.917 310.931 406.89 310.924 406.861C310.917 406.832 310.908 406.8 310.891 406.767C310.876 406.736 310.86 406.711 310.844 406.69C310.829 406.669 310.813 406.651 310.799 406.635C310.785 406.618 310.772 406.602 310.762 406.585C310.752 406.567 310.744 406.548 310.739 406.525C310.72 406.424 310.723 406.308 310.743 406.189C310.763 406.071 310.798 405.95 310.845 405.839C310.891 405.729 310.947 405.629 311.007 405.552C311.068 405.475 311.132 405.421 311.195 405.403C311.219 405.396 311.246 405.392 311.273 405.391C311.3 405.39 311.328 405.391 311.357 405.394C311.386 405.397 311.415 405.403 311.444 405.409C311.472 405.416 311.501 405.424 311.529 405.434Z" fill="white"/>
</mask>
<g mask="url(#mask3_23_2298)">
<path d="M295.401 365.12H353.716V417.77H295.401V365.12Z" fill="#30A0C9"/>
</g>
</g>
<mask id="mask4_23_2298" style="mask-type:luminance" maskUnits="userSpaceOnUse" x="220" y="244" width="60" height="54">
<path d="M220.846 244.75H279.161V297.4H220.846V244.75Z" fill="white"/>
</mask>
<g mask="url(#mask4_23_2298)">
<mask id="mask5_23_2298" style="mask-type:luminance" maskUnits="userSpaceOnUse" x="227" y="247" width="34" height="27">
<path d="M238.31 247.963C238.016 247.987 237.74 248.032 237.474 248.09C237.208 248.148 236.953 248.219 236.7 248.296C236.122 248.474 235.514 248.648 234.888 248.812C234.261 248.976 233.617 249.13 232.965 249.266C232.798 249.301 232.628 249.313 232.494 249.341C232.36 249.369 232.261 249.412 232.236 249.509C232.204 249.632 232.271 249.747 232.369 249.845C232.467 249.944 232.597 250.027 232.691 250.085C233.041 250.3 233.409 250.459 233.76 250.617C234.111 250.775 234.445 250.932 234.726 251.146C234.932 251.302 235.145 251.513 235.306 251.762C235.467 252.01 235.577 252.296 235.577 252.601C235.577 252.951 235.472 253.225 235.309 253.453C235.147 253.68 234.927 253.861 234.696 254.025C234.24 254.349 233.613 254.599 232.916 254.795C232.219 254.991 231.452 255.132 230.717 255.238C230.315 255.295 229.901 255.345 229.506 255.356C229.11 255.366 228.734 255.337 228.409 255.238C228.358 255.222 228.174 255.122 228 255.03C227.826 254.938 227.662 254.855 227.649 254.874C227.612 254.931 227.663 255.035 227.724 255.126C227.786 255.216 227.858 255.294 227.862 255.298C228.016 255.468 228.233 255.578 228.462 255.67C228.692 255.762 228.933 255.836 229.138 255.935C229.459 256.09 229.737 256.255 229.997 256.42C230.257 256.585 230.499 256.75 230.747 256.905C231.253 257.22 231.796 257.571 232.428 257.827C233.059 258.083 233.778 258.244 234.635 258.178C235.093 258.143 235.5 258.023 235.848 257.851C236.195 257.679 236.483 257.454 236.7 257.208C236.835 257.056 236.933 256.859 237.048 256.686C237.163 256.512 237.293 256.36 237.49 256.298C237.723 256.225 238.052 256.23 238.397 256.266C238.743 256.302 239.104 256.369 239.403 256.42C240.052 256.53 240.619 256.651 241.197 256.752C241.774 256.854 242.361 256.935 243.048 256.965C243.4 256.981 243.765 256.996 244.122 256.999C244.478 257.003 244.826 256.995 245.144 256.965C245.519 256.93 245.794 256.814 246.028 256.655C246.262 256.496 246.455 256.294 246.662 256.086C246.885 255.865 247.123 255.617 247.263 255.322C247.402 255.026 247.443 254.682 247.27 254.268C247.1 253.862 246.747 253.508 246.351 253.189C245.955 252.871 245.516 252.589 245.174 252.328C244.99 252.187 244.82 252.064 244.674 251.939C244.529 251.813 244.408 251.686 244.324 251.54C244.269 251.443 244.208 251.349 244.15 251.258C244.092 251.167 244.036 251.078 243.99 250.994C243.384 249.885 242.579 249.16 241.438 248.63C240.616 248.248 239.418 247.872 238.31 247.963Z" fill="white"/>
<path d="M248.363 260.814C248.351 260.824 248.332 260.833 248.318 260.846C248.304 260.86 248.295 260.878 248.303 260.905C248.382 261.177 248.49 261.413 248.6 261.641C248.71 261.868 248.822 262.089 248.91 262.33C249.132 262.942 249.263 263.711 249.231 264.439C249.199 265.167 249.005 265.854 248.576 266.301C248.277 266.613 247.808 266.826 247.25 266.946C246.691 267.066 246.044 267.092 245.387 267.028C245.214 267.011 245.029 267.001 244.839 266.982C244.649 266.962 244.455 266.932 244.263 266.877C244.089 266.826 243.888 266.722 243.679 266.606C243.471 266.491 243.254 266.365 243.048 266.27C242.971 266.235 242.873 266.193 242.764 266.146C242.654 266.1 242.533 266.049 242.41 265.998C242.328 265.963 242.176 265.892 242.026 265.843C241.876 265.794 241.727 265.765 241.651 265.816C241.589 265.856 241.592 265.954 241.608 266.064C241.625 266.174 241.656 266.298 241.651 266.392C241.647 266.468 241.606 266.638 241.555 266.807C241.505 266.975 241.446 267.142 241.408 267.21C241.269 267.458 240.969 267.712 240.709 267.907C240.431 268.117 240.074 268.325 239.829 268.423C239.263 268.648 238.149 268.603 237.581 268.513C236.503 268.343 235.924 267.908 235.212 267.362C234.887 267.112 234.62 266.881 234.392 266.604C234.316 266.511 234.219 266.322 234.149 266.422C233.988 266.651 234.421 267.451 234.574 267.786C235.584 269.997 237.043 271.646 238.857 272.878C239.6 273.383 240.449 273.898 241.56 273.939C242.296 273.966 243.022 273.654 243.139 273.121C243.218 272.766 243.031 272.326 242.866 271.999C242.446 271.166 242.041 270.419 241.621 269.574C241.422 269.175 241.558 269.363 241.651 269.423C242.927 270.234 244.773 270.984 246.177 271.514C247.361 271.962 248.718 272.424 250.064 272.727C250.542 272.834 251.044 272.941 251.552 272.969C253.381 273.07 254.732 272.36 254.833 270.696C254.911 269.41 254.331 268.405 253.921 267.543C253.489 266.634 253.091 265.932 252.403 264.967C251.837 264.174 251.223 263.478 250.55 262.754C250.117 262.289 249.486 261.723 249.001 261.239C248.82 261.058 248.543 260.68 248.363 260.814Z" fill="white"/>
<path d="M249.7 255.328C249.949 255.414 250.157 255.549 250.359 255.689C250.56 255.829 250.755 255.976 250.975 256.086C251.219 256.208 251.516 256.299 251.831 256.383C252.147 256.466 252.481 256.542 252.798 256.632C253.108 256.72 253.406 256.834 253.701 256.945C253.996 257.056 254.289 257.163 254.59 257.238C254.891 257.313 255.215 257.38 255.552 257.441C255.89 257.502 256.24 257.555 256.594 257.602C256.956 257.649 257.337 257.712 257.715 257.755C258.092 257.797 258.466 257.819 258.811 257.783C259.226 257.741 259.606 257.589 259.894 257.349C260.182 257.109 260.378 256.782 260.421 256.389C260.47 255.95 260.454 255.489 260.384 255.073C260.314 254.657 260.191 254.286 260.026 254.025C259.915 253.85 259.768 253.665 259.605 253.48C259.441 253.295 259.261 253.11 259.085 252.934C258.751 252.601 258.409 252.254 258.052 251.933C256.544 250.581 254.939 249.759 252.828 249.024C252.358 248.86 251.839 248.648 251.309 248.508C251.071 248.445 250.793 248.429 250.429 248.357C250.136 248.298 249.652 248.127 249.578 248.175C249.468 248.246 249.979 248.609 249.639 248.296C249.707 248.359 249.732 248.342 249.791 248.387C249.989 248.54 250.434 248.932 250.581 249.054C251.321 249.668 252.043 250.193 252.646 250.903C252.998 251.318 253.396 251.823 253.436 252.509C253.48 253.283 253.387 253.754 253.041 254.176C252.846 254.414 252.41 254.765 251.978 254.965C251.777 255.057 251.526 255.105 251.279 255.177C250.748 255.332 250.262 255.496 249.7 255.328Z" fill="white"/>
<path d="M254.165 250.055C254.164 250.054 254.164 250.054 254.163 250.053C254.163 250.052 254.162 250.052 254.162 250.052C254.162 250.051 254.162 250.051 254.161 250.051C254.161 250.051 254.161 250.051 254.161 250.051C254.162 250.051 254.162 250.051 254.162 250.052C254.162 250.052 254.162 250.052 254.163 250.052C254.163 250.053 254.163 250.053 254.164 250.053C254.164 250.054 254.165 250.054 254.165 250.055C254.165 250.055 254.166 250.056 254.166 250.056C254.167 250.057 254.167 250.057 254.168 250.058C254.168 250.058 254.169 250.059 254.169 250.059C254.17 250.06 254.17 250.06 254.171 250.06C254.171 250.061 254.172 250.061 254.172 250.062C254.172 250.062 254.173 250.062 254.173 250.063C254.173 250.063 254.173 250.063 254.173 250.063C254.174 250.063 254.174 250.063 254.174 250.063C254.174 250.063 254.173 250.063 254.173 250.063C254.173 250.063 254.173 250.062 254.172 250.062C254.172 250.062 254.171 250.061 254.171 250.06C254.17 250.06 254.169 250.059 254.168 250.058C254.167 250.057 254.166 250.056 254.165 250.055Z" fill="white"/>
</mask>
<g mask="url(#mask5_23_2298)">
<path d="M279.161 244.75H220.846V297.4H279.161V244.75Z" fill="#30A0C9"/>
</g>
<mask id="mask6_23_2298" style="mask-type:luminance" maskUnits="userSpaceOnUse" x="234" y="247" width="45" height="42">
<path d="M238.766 247.963C238.677 247.986 238.621 247.977 238.604 247.975C238.587 247.972 238.608 247.976 238.675 248.023C238.926 248.202 239.156 248.379 239.375 248.56C239.594 248.74 239.802 248.923 240.011 249.115C240.375 249.448 240.805 249.804 241.199 250.19C241.593 250.576 241.951 250.992 242.167 251.448C242.452 252.047 242.493 252.749 242.347 253.398C242.202 254.046 241.87 254.641 241.408 255.025C241.106 255.276 240.687 255.532 240.222 255.733C239.757 255.935 239.247 256.082 238.766 256.116C238.569 256.13 238.387 256.112 238.224 256.095C238.061 256.079 237.917 256.064 237.794 256.086C237.612 256.118 237.461 256.25 237.324 256.406C237.187 256.563 237.065 256.744 236.943 256.874C236.816 257.011 236.678 257.162 236.527 257.298C236.376 257.434 236.212 257.555 236.032 257.632C235.869 257.701 235.744 257.723 235.604 257.744C235.464 257.764 235.31 257.782 235.091 257.844C234.807 257.924 234.838 257.974 234.977 258.005C235.117 258.036 235.365 258.049 235.516 258.056C235.904 258.074 236.237 258.059 236.512 258.002C236.786 257.944 237.003 257.844 237.156 257.692C237.197 257.652 237.252 257.577 237.307 257.494C237.362 257.41 237.418 257.316 237.46 257.238C237.491 257.179 237.518 257.073 237.558 256.974C237.598 256.875 237.65 256.783 237.733 256.753C237.779 256.736 237.872 256.744 237.979 256.76C238.086 256.776 238.207 256.8 238.31 256.813C238.967 256.901 239.684 256.983 240.372 257.078C241.061 257.173 241.72 257.281 242.258 257.42C242.604 257.509 242.959 257.6 243.327 257.668C243.696 257.737 244.077 257.783 244.476 257.783C245.313 257.783 246.125 257.803 246.784 257.48C247.243 257.255 247.788 256.758 247.877 256.056C247.986 255.201 247.737 254.47 247.483 253.995C247.084 253.25 246.515 252.731 245.842 252.358C245.513 252.175 245.105 252.011 244.84 251.721C244.399 251.239 244.306 250.565 244.02 250.115C243.731 249.659 243.21 249.298 242.623 248.933C242.109 248.613 241.516 248.261 240.922 248.114C240.635 248.043 240.336 248.08 240.041 248.054C239.904 248.041 239.779 247.952 239.586 247.932C239.384 247.912 238.92 247.923 238.766 247.963Z" fill="white"/>
<path d="M253.527 249.357C253.507 249.376 253.519 249.41 253.549 249.451C253.579 249.492 253.627 249.539 253.68 249.587C253.733 249.634 253.791 249.682 253.841 249.722C253.89 249.762 253.932 249.794 253.952 249.812C253.987 249.843 254.02 249.875 254.052 249.907C254.083 249.94 254.113 249.973 254.142 250.006C254.171 250.039 254.199 250.072 254.228 250.106C254.257 250.139 254.286 250.172 254.316 250.206C254.446 250.348 254.571 250.481 254.691 250.612C254.81 250.744 254.924 250.873 255.031 251.009C255.138 251.145 255.239 251.287 255.333 251.444C255.426 251.6 255.513 251.771 255.592 251.964C255.63 252.056 255.669 252.151 255.708 252.249C255.747 252.346 255.786 252.444 255.822 252.543C255.858 252.641 255.891 252.74 255.919 252.836C255.947 252.932 255.971 253.026 255.987 253.116C256.063 253.539 256.05 253.909 255.975 254.235C255.901 254.56 255.766 254.841 255.596 255.086C255.427 255.331 255.224 255.54 255.015 255.722C254.788 255.92 254.582 256.092 254.361 256.242C254.14 256.393 253.905 256.521 253.618 256.632C253.547 256.659 253.404 256.695 253.304 256.737C253.204 256.779 253.148 256.826 253.253 256.874C253.342 256.915 253.378 256.927 253.412 256.939C253.445 256.95 253.477 256.959 253.557 256.995C254.061 257.221 254.517 257.454 254.979 257.658C255.441 257.862 255.91 258.037 256.442 258.147C256.482 258.155 256.51 258.162 256.534 258.167C256.557 258.172 256.576 258.176 256.594 258.177C257.139 258.231 257.715 258.227 258.238 258.165C258.761 258.104 259.233 257.986 259.571 257.814C259.731 257.732 259.939 257.587 260.129 257.429C260.318 257.27 260.488 257.099 260.573 256.965C260.779 256.639 260.855 256.083 260.819 255.518C260.783 254.954 260.635 254.382 260.391 254.025C260.31 253.906 260.196 253.785 260.072 253.664C259.948 253.542 259.814 253.419 259.692 253.297C259.572 253.177 259.453 253.057 259.337 252.935C259.221 252.814 259.106 252.693 258.994 252.57C258.776 252.333 258.511 252.104 258.231 251.89C257.952 251.676 257.658 251.476 257.384 251.297C257.086 251.102 256.783 250.921 256.479 250.751C256.174 250.58 255.868 250.42 255.562 250.266C255.245 250.108 254.923 249.934 254.594 249.773C254.265 249.612 253.93 249.464 253.587 249.357C253.571 249.352 253.567 249.341 253.561 249.337C253.555 249.333 253.548 249.336 253.527 249.357Z" fill="white"/>
<path d="M247.695 257.208C247.685 257.216 247.664 257.225 247.649 257.24C247.634 257.254 247.624 257.272 247.634 257.298C247.701 257.459 247.793 257.591 247.895 257.719C247.997 257.847 248.108 257.971 248.211 258.117C248.303 258.246 248.391 258.386 248.484 258.526C248.577 258.666 248.675 258.806 248.788 258.935C248.871 259.029 248.969 259.113 249.07 259.197C249.171 259.28 249.274 259.363 249.366 259.451C249.471 259.552 249.563 259.66 249.651 259.76C249.739 259.861 249.823 259.954 249.912 260.026C250.049 260.137 250.214 260.253 250.383 260.356C250.553 260.459 250.727 260.547 250.884 260.602C251.189 260.709 251.52 260.736 251.787 260.684C252.054 260.633 252.258 260.504 252.312 260.299C252.351 260.148 252.33 259.948 252.279 259.753C252.228 259.558 252.148 259.368 252.069 259.238C251.999 259.124 251.87 259 251.72 258.88C251.57 258.759 251.4 258.642 251.249 258.541C250.95 258.342 250.626 258.149 250.289 257.973C249.951 257.797 249.6 257.639 249.244 257.511C249.056 257.443 248.862 257.367 248.665 257.305C248.467 257.243 248.265 257.193 248.06 257.177C247.988 257.172 247.902 257.174 247.832 257.181C247.762 257.188 247.707 257.198 247.695 257.208Z" fill="white"/>
<path d="M264.643 259.238C264.633 259.248 264.628 259.254 264.627 259.258C264.625 259.263 264.627 259.265 264.631 259.268C264.635 259.271 264.641 259.273 264.649 259.278C264.656 259.282 264.665 259.289 264.673 259.299C264.726 259.363 264.786 259.424 264.847 259.483C264.909 259.541 264.972 259.596 265.034 259.649C265.095 259.701 265.154 259.752 265.207 259.799C265.26 259.847 265.306 259.892 265.341 259.935C265.392 259.997 265.439 260.061 265.486 260.126C265.533 260.191 265.578 260.257 265.624 260.324C265.67 260.391 265.717 260.458 265.765 260.525C265.814 260.592 265.864 260.658 265.918 260.724C265.967 260.782 266.019 260.841 266.073 260.9C266.126 260.959 266.181 261.019 266.237 261.08C266.292 261.142 266.347 261.205 266.401 261.272C266.455 261.338 266.507 261.408 266.556 261.481C266.58 261.517 266.601 261.554 266.62 261.593C266.639 261.632 266.657 261.673 266.675 261.714C266.693 261.755 266.711 261.797 266.731 261.84C266.751 261.882 266.773 261.924 266.799 261.966C266.835 262.024 266.875 262.081 266.919 262.139C266.963 262.196 267.01 262.254 267.059 262.312C267.107 262.37 267.157 262.428 267.205 262.486C267.254 262.545 267.301 262.604 267.346 262.663C267.395 262.729 267.442 262.794 267.487 262.858C267.533 262.922 267.578 262.985 267.623 263.045C267.667 263.105 267.711 263.163 267.756 263.216C267.801 263.269 267.846 263.318 267.893 263.361C267.949 263.413 268.02 263.467 268.099 263.516C268.178 263.565 268.266 263.609 268.357 263.643C268.447 263.676 268.541 263.699 268.633 263.705C268.724 263.71 268.813 263.699 268.895 263.664C269.034 263.604 269.11 263.473 269.141 263.31C269.171 263.147 269.157 262.952 269.115 262.766C269.073 262.579 269.004 262.4 268.925 262.269C268.853 262.149 268.745 262.024 268.626 261.9C268.506 261.777 268.375 261.655 268.257 261.542C268.033 261.327 267.765 261.103 267.49 260.889C267.215 260.675 266.932 260.472 266.678 260.299C266.514 260.188 266.368 260.069 266.232 259.961C266.097 259.853 265.974 259.757 265.858 259.693C265.786 259.653 265.693 259.621 265.592 259.589C265.492 259.556 265.384 259.523 265.281 259.481C265.202 259.449 265.068 259.363 264.94 259.298C264.813 259.233 264.693 259.189 264.643 259.238Z" fill="white"/>
<path d="M249.487 261.694C249.485 261.697 249.484 261.71 249.484 261.723C249.485 261.736 249.486 261.75 249.487 261.754C249.563 262.12 249.697 262.392 249.843 262.653C249.989 262.913 250.149 263.162 250.277 263.482C250.525 264.102 250.591 264.79 250.504 265.453C250.417 266.115 250.179 266.753 249.821 267.271C249.501 267.734 249.088 268.156 248.586 268.493C248.084 268.831 247.492 269.084 246.814 269.211C246.444 269.28 246.1 269.248 245.8 269.162C245.5 269.075 245.245 268.935 245.053 268.786C244.765 268.563 244.509 268.293 244.252 268.032C243.995 267.77 243.736 267.518 243.443 267.331C243.364 267.281 243.124 267.142 242.868 267.039C242.613 266.937 242.341 266.872 242.198 266.968C242.085 267.043 242.059 267.227 242.078 267.425C242.097 267.623 242.161 267.836 242.228 267.968C242.38 268.269 242.531 268.555 242.679 268.835C242.827 269.114 242.972 269.388 243.109 269.665C243.181 269.811 243.255 269.965 243.338 270.104C243.422 270.244 243.515 270.368 243.625 270.453C243.781 270.574 244.09 270.684 244.354 270.787C245.661 271.294 246.971 271.73 248.12 272.393C248.637 272.691 249.083 272.987 249.548 273.121C250.108 273.282 250.833 273.298 251.522 273.272C252.689 273.229 253.485 273.003 254.104 272.484C254.559 272.102 254.745 271.754 254.833 271.06C254.968 269.99 254.778 269.11 254.438 268.332C254.273 267.954 254.108 267.56 253.921 267.21C253.551 266.515 253.128 265.853 252.676 265.179C251.746 263.794 250.837 262.553 249.578 261.694C249.544 261.67 249.512 261.657 249.487 261.694Z" fill="white"/>
<path d="M258.933 264.725C258.932 264.726 258.931 264.732 258.93 264.741C258.93 264.749 258.93 264.759 258.93 264.77C258.93 264.78 258.93 264.791 258.931 264.799C258.931 264.808 258.932 264.814 258.933 264.816C258.982 264.905 259.045 264.991 259.116 265.074C259.188 265.157 259.268 265.237 259.351 265.316C259.434 265.395 259.52 265.473 259.604 265.551C259.688 265.628 259.77 265.706 259.844 265.785C260.062 266.019 260.278 266.26 260.495 266.503C260.711 266.746 260.928 266.992 261.144 267.236C261.361 267.479 261.578 267.721 261.797 267.955C262.015 268.19 262.235 268.418 262.456 268.635C262.482 268.66 262.495 268.69 262.507 268.719C262.519 268.747 262.529 268.772 262.547 268.786C262.63 268.851 262.745 268.922 262.869 268.994C262.993 269.065 263.126 269.139 263.246 269.211C263.373 269.287 263.516 269.373 263.65 269.446C263.784 269.52 263.91 269.58 264.005 269.605C264.167 269.647 264.364 269.65 264.533 269.629C264.702 269.609 264.841 269.565 264.886 269.514C264.972 269.415 264.989 269.203 264.962 268.978C264.934 268.753 264.861 268.514 264.764 268.362C264.704 268.267 264.607 268.171 264.498 268.075C264.388 267.98 264.267 267.883 264.157 267.786C264.052 267.693 263.936 267.606 263.822 267.521C263.707 267.436 263.592 267.354 263.489 267.271C263.276 267.1 263.036 266.933 262.79 266.774C262.545 266.616 262.294 266.467 262.061 266.331C261.929 266.254 261.797 266.186 261.668 266.117C261.54 266.049 261.416 265.981 261.302 265.907C261.039 265.735 260.814 265.581 260.581 265.437C260.348 265.293 260.107 265.159 259.814 265.028C259.678 264.967 259.542 264.899 259.402 264.838C259.262 264.778 259.117 264.724 258.963 264.694C258.948 264.691 258.943 264.695 258.94 264.701C258.938 264.708 258.938 264.717 258.933 264.725Z" fill="white"/>
<path d="M235.698 269.847C235.692 269.857 235.695 269.926 235.698 269.938C235.811 270.329 236.292 270.727 236.579 271.06C236.904 271.436 237.218 271.855 237.52 272.12C237.794 272.36 238.166 272.604 238.523 272.848C239.253 273.346 239.858 273.77 240.861 273.969C241.356 274.068 242.027 274.182 242.471 274.091C242.701 274.043 242.921 273.832 243.078 273.636C243.52 273.085 243.369 272.67 243.078 272.12C242.956 271.888 242.85 271.64 242.744 271.393C242.605 271.065 242.34 270.511 242.076 270.241C241.922 270.083 241.959 270.25 241.894 270.423C241.698 270.941 241.205 271.259 240.709 271.545C240.335 271.76 239.886 271.926 239.434 271.939C238.064 271.976 237.235 271.086 236.518 270.484C236.39 270.376 236.226 270.296 236.093 270.181C236.018 270.116 235.752 269.757 235.698 269.847Z" fill="white"/>
<path d="M255.015 271.969C254.999 271.977 254.988 271.976 254.978 271.977C254.969 271.979 254.961 271.982 254.954 271.999C254.916 272.09 255.015 272.259 255.131 272.419C255.247 272.58 255.38 272.731 255.41 272.787C255.449 272.861 255.475 272.938 255.501 273.019C255.527 273.1 255.553 273.184 255.592 273.272C255.672 273.456 255.782 273.641 255.894 273.831C256.005 274.022 256.117 274.218 256.199 274.424C256.361 274.827 256.472 275.149 256.655 275.485C256.761 275.681 256.859 275.875 256.959 276.061C257.172 276.456 257.436 276.982 257.657 277.152C257.862 277.31 258.429 277.464 258.659 277.364C258.863 277.276 259.12 276.558 258.994 276.061C258.952 275.898 258.76 275.665 258.599 275.455C258.153 274.873 257.747 274.291 257.262 273.788C257.081 273.599 256.871 273.479 256.716 273.333C256.544 273.171 256.404 272.991 256.23 272.818C255.914 272.502 255.536 272.111 255.106 271.939C255.062 271.921 255.031 271.96 255.015 271.969Z" fill="white"/>
<path d="M263.033 275.727C263.029 275.731 263.013 275.744 262.998 275.757C262.984 275.77 262.971 275.783 262.972 275.788C263.03 276.019 263.189 276.269 263.364 276.503C263.54 276.737 263.731 276.955 263.853 277.122C264.001 277.325 264.147 277.557 264.289 277.797C264.431 278.036 264.569 278.283 264.704 278.516C264.986 279.005 265.254 279.475 265.534 279.929C265.813 280.383 266.105 280.821 266.435 281.244C266.779 281.685 267.044 282.095 267.285 282.608C267.761 283.619 268.251 284.569 268.865 285.488C269.17 285.945 269.536 286.5 269.897 286.7C270.31 286.929 271.372 287.139 271.872 286.942C272.449 286.715 272.65 285.668 272.418 284.821C272.282 284.323 271.879 283.864 271.537 283.396C270.486 281.956 269.734 280.788 268.531 279.486C267.757 278.649 267.008 277.978 266.101 277.304C265.471 276.835 264.727 276.363 263.884 276.061C263.624 275.968 263.17 275.625 263.033 275.727Z" fill="white"/>
<path d="M251.947 280.607C251.903 280.64 251.898 280.597 251.886 280.668C251.811 281.149 252.562 281.855 252.767 282.093C253.134 282.517 253.487 283.081 253.739 283.457C254.023 283.881 254.373 284.345 254.711 284.821C255.247 285.575 255.481 286.228 256.078 286.791C256.236 286.94 256.448 287.157 256.625 287.246C256.863 287.365 257.774 287.59 258.082 287.549C258.713 287.463 258.922 286.296 258.872 285.518C258.858 285.295 258.766 285.002 258.72 284.73C258.619 284.125 258.48 283.661 258.295 283.214C258.183 282.943 258.108 282.682 258.022 282.517C257.965 282.408 257.829 282.292 257.718 282.093C257.632 281.938 257.581 281.602 257.414 281.638C257.23 281.678 257.309 282.168 257.232 282.396C257.16 282.609 256.929 282.908 256.685 283.002C256.335 283.136 255.747 283.13 255.379 283.063C255.016 282.996 254.672 282.787 254.377 282.608C254.057 282.414 253.774 282.213 253.527 282.002C252.988 281.541 252.529 280.977 252.008 280.607C251.973 280.583 251.99 280.576 251.947 280.607Z" fill="white"/>
<path d="M277.247 284.608C277.198 284.68 277.216 284.806 277.249 284.939C277.281 285.071 277.328 285.21 277.338 285.306C277.349 285.411 277.349 285.522 277.35 285.635C277.351 285.748 277.353 285.862 277.369 285.972C277.387 286.101 277.418 286.234 277.451 286.367C277.485 286.499 277.521 286.632 277.551 286.761C277.586 286.912 277.614 287.066 277.643 287.204C277.671 287.343 277.699 287.464 277.733 287.549C277.788 287.682 277.888 287.858 278.004 288C278.12 288.142 278.252 288.249 278.371 288.246C278.727 288.235 278.803 287.746 278.675 287.336C278.57 287.003 278.367 286.624 278.25 286.397C277.996 285.909 277.759 285.554 277.551 285.093C277.484 284.944 277.338 284.477 277.247 284.608Z" fill="white"/>
</mask>
<g mask="url(#mask6_23_2298)">
<path d="M279.161 244.75H220.846V297.4H279.161V244.75Z" fill="#30A0C9"/>
</g>
</g>
</svg>
